<svg width="521" height="578" viewBox="0 0 521 578" fill="none" xmlns="http://www.w3.org/2000/svg">
<path d="M470.907 147.726C592.606 243.016 470.354 461.428 340.476 511.347C210.598 561.261 -12.812 484.462 0.575327 328.493C8.83356 232.247 92.3661 249.119 222.244 199.2C352.122 149.28 423.621 110.694 470.912 147.721L470.907 147.726Z" fill="#F5F5F5"/>
<path d="M452.518 129.635C450.082 136.187 445.86 143.794 441.43 145.685C436.408 147.829 434.309 150.859 434.309 150.859L430.252 148.501L425.409 145.685C425.409 145.685 425.523 145.148 425.762 144.272C425.995 143.401 426.358 142.182 426.851 140.834C426.851 140.834 428.337 138.924 427.427 136.52C426.518 134.122 426.702 130.416 428.253 128.152C429.809 125.893 431.306 120.326 432.241 120.49C434.508 120.878 431.127 128.53 432.097 129.953C432.972 131.237 434.071 130.794 434.275 130.699C434.289 130.689 434.299 130.684 434.314 130.679C440.669 127.883 448.381 112.808 451.792 114.843C453.065 115.604 453.558 126.843 452.523 129.64L452.518 129.635Z" fill="#FFB27D"/>
<path d="M430.53 138.764L438.491 144.361C439.053 144.755 439.838 144.62 440.231 144.058L460.628 115.017C461.021 114.455 460.886 113.669 460.325 113.276L452.364 107.678C451.802 107.28 451.016 107.42 450.623 107.982L430.226 137.023C429.834 137.585 429.968 138.371 430.53 138.764Z" fill="#686868"/>
<path d="M437.819 143.889L442.488 147.172C442.916 147.471 443.513 147.371 443.816 146.939L464.556 117.41C464.859 116.982 464.755 116.385 464.327 116.082L459.658 112.798C459.231 112.494 458.634 112.599 458.331 113.027L437.591 142.555C437.292 142.983 437.392 143.58 437.819 143.879V143.889Z" fill="#303030"/>
<path d="M316.308 97.0913C316.308 97.0913 356.824 167.796 371.522 180.806L425.413 140.605C425.413 140.605 433.235 143.004 436.656 150.86C436.656 150.86 403.928 217.574 371.706 220.405C339.485 223.23 294.261 140.441 294.261 140.441L316.308 97.0963V97.0913Z" fill="#E55C5C"/>
<path d="M224.626 577.994H201.216C198.268 576.392 195.642 572.725 194.812 567.262C193.668 559.715 185.215 555.6 183.385 549.431C181.56 543.261 190.928 534.575 190.928 534.575L192.495 532.555L194.126 530.46L209.664 534.122C209.664 534.122 210.047 537.823 210.281 542.54C210.45 545.943 210.54 549.874 210.351 553.322C209.893 561.551 212.648 570.412 219.957 572.014C225.362 573.198 225.119 576.402 224.621 577.999L224.626 577.994Z" fill="#7E7E7E"/>
<path d="M360.478 577.994H306.945C304.369 574.85 305.319 563.247 305.706 559.461C305.786 558.7 305.841 558.252 305.841 558.252C305.841 558.252 324.119 543.62 326.63 554.824C326.705 555.178 326.799 555.521 326.899 555.859C330.061 566.337 344.253 571.099 352.447 572.427C357.773 573.293 359.742 576.064 360.473 577.994H360.478Z" fill="#7E7E7E"/>
<path d="M350.28 279.003C350.28 279.003 347.505 313.656 344.243 355.309C339.808 411.894 334.478 481.399 333.95 494.563C333.041 517.43 329.381 553.999 329.381 553.999C329.381 553.999 320.704 562.686 303.335 559.024C303.335 559.024 287.861 506.818 283.441 451.577C283.371 450.671 283.301 449.761 283.237 448.845C279.125 392.609 272.73 274.197 272.73 274.197L350.29 278.998L350.28 279.003Z" fill="#686868"/>
<path d="M350.28 279.003C350.28 279.003 347.505 313.656 344.243 355.309L283.436 451.582C283.366 450.676 283.296 449.766 283.232 448.85C279.12 392.614 272.725 274.202 272.725 274.202L350.285 279.003H350.28Z" fill="#303030"/>
<path d="M337.6 283.117C337.6 283.117 287.568 408.615 254.67 467.592C221.773 526.57 211.49 543.028 211.49 543.028C211.49 543.028 192.639 535.485 190.929 530.341C190.929 530.341 203.509 416.481 225.542 388.729C237.993 373.046 252.617 325.98 253.298 309.521C253.984 293.063 257.753 260.49 257.753 260.49L337.6 283.122V283.117Z" fill="#686868"/>
<path d="M325.145 100.166C305.593 106.34 271.766 89.6778 271.766 89.6778C271.766 89.6778 289.791 76.14 288.846 47.9946L303.962 60.1842L314.23 68.4631C314.23 68.4631 314.19 73.3439 313.067 81.8964C312.768 84.1453 312.4 86.6528 311.938 89.3942C320.331 94.0014 325.145 100.161 325.145 100.161V100.166Z" fill="#FFB27D"/>
<path d="M314.235 68.468C314.235 68.468 314.195 73.3488 313.071 81.9014C301.694 79.9461 288.786 61.5474 288.786 61.5474C294.579 59.8757 299.65 59.5722 303.966 60.1891L314.235 68.468Z" fill="#ED975D"/>
<path d="M320.212 68.0007C320.212 68.0007 287.916 73.369 284.888 53.1941C281.855 33.0192 275.644 20.1232 296.136 15.8444C316.627 11.5656 321.798 18.6604 324.449 25.1483C327.099 31.6361 328.536 66.0852 320.212 68.0007Z" fill="#FFB27D"/>
<path d="M352.433 281.889C351.846 282.377 351.16 282.675 350.379 282.675C343.035 282.576 321.629 286.656 303.509 284.795C288.239 283.327 274.719 278.8 260.204 272.292C258.275 271.426 253.84 269.058 253.939 266.904C254.004 264.545 254.237 261.117 254.531 256.809C255.56 241.818 257.35 216.031 255.605 186.279C255.292 180.741 255.128 175.243 255.108 169.835C254.958 129.515 262.949 94.0512 279.005 82.0507C280.378 81.0656 288.796 85.1851 296.533 89.0012C303.678 92.5287 310.829 92.9168 317.581 91.5486L324.334 97.5239C332.558 105.166 341.568 115.549 345.481 131.321C348.813 144.74 350.767 168.94 351.846 194.02C352.333 205.384 352.731 216.847 352.831 227.723V228.111C352.925 229.191 352.925 230.365 352.925 231.445C353.318 259.361 352.925 281.501 352.438 281.894L352.433 281.889Z" fill="#FD7373"/>
<path d="M254.536 256.799C255.565 241.808 257.356 216.021 255.61 186.269C255.297 180.731 255.133 175.234 255.113 169.825C261.801 153.591 267.271 141.819 267.271 141.819H284.127C284.127 141.819 296.488 226.29 254.541 256.799H254.536Z" fill="#E55C5C"/>
<path d="M249.369 297.562L177.467 287.313C168.109 285.979 159.363 292.547 158.03 301.91L153.59 333.086C152.257 342.449 158.821 351.201 168.179 352.534L240.08 362.788C249.438 364.122 258.185 357.554 259.517 348.191L263.958 317.015C265.29 307.652 258.727 298.9 249.369 297.567V297.562Z" fill="#303030"/>
<path d="M253.427 306.855C251.408 301.791 247.047 297.795 241.513 296.442C241.513 296.442 241.503 296.442 241.498 296.442C240.956 296.313 240.404 296.198 239.837 296.119L225.521 294.079L226.476 287.352C226.69 285.85 226.307 284.352 225.392 283.133C224.477 281.919 223.145 281.123 221.643 280.914L217.909 280.382L202.877 278.237L200.167 277.849C197.064 277.407 194.17 279.576 193.733 282.685L192.778 289.412L168.065 285.885C158.672 284.546 149.896 291.138 148.553 300.537L144.063 332.075C142.726 341.474 149.314 350.255 158.707 351.594L230.479 361.833C231.747 362.017 233 362.047 234.223 361.952H234.238C236.202 361.803 238.092 361.31 239.842 360.539C245.118 358.211 249.125 353.285 249.996 347.18L254.491 315.647C254.928 312.572 254.516 309.567 253.437 306.865L253.427 306.855ZM197.263 283.183C197.397 282.243 198.133 281.531 199.028 281.387C199.237 281.352 199.446 281.347 199.67 281.377L202.862 281.83L214.691 283.521L221.141 284.442C222.299 284.606 223.11 285.685 222.946 286.845L221.991 293.571L196.308 289.905L197.268 283.178L197.263 283.183Z" fill="#686868"/>
<path d="M218.859 267.928C218.879 267.545 218.898 267.152 218.928 266.744C219.077 264.734 222.856 259.699 222.856 259.699L213.389 254.784L209.64 260.983C203.981 265.491 203.877 265.57 204.906 274.202C205.801 281.685 200.908 281.775 201.028 287.113C201.142 292.457 208.024 289.83 208.024 289.83C218.685 284.82 219.57 282.302 219.242 277.222C220.251 278.66 221.385 279.496 222.344 278.869C223.19 278.317 221.499 276.133 220.763 271.068C220.654 270.312 219.759 269.043 218.854 267.928H218.859Z" fill="#FFB27D"/>
<path d="M213.25 263.56C219.321 264.744 225.9 264.266 225.9 264.266C225.9 264.266 243.925 208.558 246.242 203.468C248.564 198.378 299.775 138.147 299.775 138.147L278.439 84.7222C278.439 84.7222 223.046 177.303 217.422 190.313C208.128 211.812 204.901 260.008 204.901 260.008C204.901 260.008 208.477 262.63 213.245 263.56H213.25Z" fill="#FD7373"/>
<path d="M284.863 51.2535C284.863 51.2535 288.174 50.7012 287.642 46.1339C287.105 41.5666 287.115 35.5962 290.825 36.7106C294.534 37.8251 294.718 40.7954 296.245 39.059C297.771 37.3226 297.796 30.0089 308.84 29.5014C319.884 28.9939 324.369 32.8399 329.505 30.5811C334.642 28.3223 334.91 20.5458 334.91 20.5458C334.91 20.5458 333.448 23.3221 331.246 24.2077C331.246 24.2077 339.813 12.4809 329.893 4.44075C319.973 -3.59936 309.859 1.66452 304.121 2.01279C291.476 2.77899 283.306 3.54022 279.174 11.854C275.042 20.1677 276.748 43.2582 284.863 51.2634V51.2535Z" fill="#263238"/>
</svg>
