<svg width="521" height="579" viewBox="0 0 521 579" fill="none" xmlns="http://www.w3.org/2000/svg">
<path d="M470.907 148.226C592.606 243.516 470.354 461.928 340.476 511.847C210.598 561.761 -12.812 484.962 0.575327 328.993C8.83356 232.747 92.3661 249.619 222.244 199.7C352.122 149.781 423.621 111.194 470.912 148.221L470.907 148.226Z" fill="#F5F5F5"/>
<path d="M452.52 130.135C450.083 136.687 445.862 144.294 441.431 146.185C436.409 148.329 434.311 151.359 434.311 151.359L430.253 149.001L425.41 146.185C425.41 146.185 425.525 145.648 425.763 144.772C425.997 143.901 426.36 142.682 426.852 141.334C426.852 141.334 428.339 139.424 427.429 137.02C426.519 134.622 426.703 130.916 428.254 128.652C429.811 126.393 431.307 120.826 432.242 120.99C434.51 121.378 431.128 129.03 432.098 130.453C432.973 131.737 434.072 131.294 434.276 131.199C434.291 131.189 434.301 131.184 434.316 131.179C440.671 128.383 448.383 113.308 451.794 115.343C453.067 116.104 453.559 127.343 452.525 130.14L452.52 130.135Z" fill="#FFB27D"/>
<path d="M430.532 139.264L438.493 144.861C439.054 145.254 439.84 145.12 440.233 144.558L460.63 115.517C461.023 114.954 460.888 114.168 460.327 113.775L452.366 108.178C451.804 107.78 451.018 107.919 450.625 108.481L430.228 137.522C429.836 138.085 429.97 138.871 430.532 139.264Z" fill="#686868"/>
<path d="M437.821 144.389L442.49 147.672C442.918 147.971 443.515 147.871 443.818 147.439L464.558 117.91C464.861 117.482 464.757 116.885 464.329 116.582L459.66 113.298C459.233 112.994 458.636 113.099 458.333 113.527L437.593 143.055C437.294 143.483 437.394 144.08 437.821 144.379V144.389Z" fill="#303030"/>
<path d="M316.309 97.5903C316.309 97.5903 356.824 168.295 371.523 181.305L425.414 141.104C425.414 141.104 433.236 143.503 436.657 151.359C436.657 151.359 403.928 218.073 371.707 220.904C339.485 223.73 294.261 140.94 294.261 140.94L316.309 97.5953V97.5903Z" fill="#E55C5C"/>
<path d="M224.629 578.495H201.219C198.27 576.893 195.645 573.226 194.814 567.763C193.671 560.216 185.217 556.101 183.388 549.932C181.563 543.762 190.931 535.076 190.931 535.076L192.497 533.056L194.128 530.961L209.667 534.623C209.667 534.623 210.05 538.324 210.283 543.041C210.453 546.444 210.542 550.375 210.353 553.823C209.896 562.052 212.65 570.913 219.96 572.515C225.365 573.699 225.121 576.903 224.624 578.5L224.629 578.495Z" fill="#7E7E7E"/>
<path d="M360.48 578.495H306.947C304.371 575.351 305.321 563.748 305.709 559.962C305.788 559.201 305.843 558.753 305.843 558.753C305.843 558.753 324.122 544.121 326.633 555.325C326.707 555.679 326.802 556.022 326.901 556.36C330.064 566.838 344.255 571.6 352.45 572.928C357.775 573.794 359.744 576.565 360.475 578.495H360.48Z" fill="#7E7E7E"/>
<path d="M350.281 279.503C350.281 279.503 347.507 314.156 344.245 355.81C339.809 412.394 334.479 481.899 333.952 495.064C333.042 517.931 329.382 554.499 329.382 554.499C329.382 554.499 320.705 563.186 303.337 559.524C303.337 559.524 287.863 507.318 283.442 452.077C283.372 451.172 283.303 450.261 283.238 449.346C279.126 393.11 272.731 274.697 272.731 274.697L350.291 279.498L350.281 279.503Z" fill="#686868"/>
<path d="M350.282 279.504C350.282 279.504 347.508 314.157 344.246 355.81L283.438 452.083C283.369 451.177 283.299 450.267 283.234 449.351C279.122 393.115 272.728 274.703 272.728 274.703L350.287 279.504H350.282Z" fill="#303030"/>
<path d="M337.602 283.618C337.602 283.618 287.57 409.115 254.672 468.093C221.775 527.07 211.492 543.529 211.492 543.529C211.492 543.529 192.641 535.986 190.931 530.841C190.931 530.841 203.511 416.981 225.544 389.229C237.995 373.547 252.619 326.48 253.3 310.022C253.986 293.564 257.755 260.99 257.755 260.99L337.602 283.623V283.618Z" fill="#686868"/>
<path d="M325.145 100.666C305.594 106.84 271.766 90.1778 271.766 90.1778C271.766 90.1778 289.791 76.64 288.846 48.4946L303.963 60.6842L314.231 68.9631C314.231 68.9631 314.191 73.8439 313.067 82.3964C312.769 84.6453 312.401 87.1528 311.938 89.8942C320.332 94.5014 325.145 100.661 325.145 100.661V100.666Z" fill="#FFB27D"/>
<path d="M314.236 68.9685C314.236 68.9685 314.197 73.8493 313.073 82.4019C301.696 80.4466 288.788 62.0479 288.788 62.0479C294.58 60.3761 299.652 60.0727 303.968 60.6896L314.236 68.9685Z" fill="#ED975D"/>
<path d="M320.213 68.5007C320.213 68.5007 287.917 73.869 284.889 53.6941C281.856 33.5192 275.645 20.6232 296.137 16.3444C316.628 12.0656 321.799 19.1604 324.45 25.6483C327.1 32.1361 328.537 66.5852 320.213 68.5007Z" fill="#FFB27D"/>
<path d="M352.433 282.389C351.847 282.876 351.16 283.175 350.38 283.175C343.036 283.075 321.629 287.155 303.51 285.294C288.239 283.827 274.719 279.299 260.205 272.791C258.276 271.926 253.84 269.557 253.94 267.403C254.004 265.045 254.238 261.617 254.531 257.308C255.561 242.318 257.351 216.531 255.605 186.778C255.292 181.241 255.128 175.743 255.108 170.335C254.959 130.015 262.95 94.5507 279.006 82.5502C280.378 81.5651 288.796 85.6847 296.533 89.5007C303.679 93.0282 310.829 93.4163 317.582 92.0481L324.334 98.0234C332.559 105.666 341.569 116.049 345.482 131.821C348.813 145.239 350.768 169.439 351.847 194.52C352.334 205.883 352.732 217.346 352.831 228.223V228.611C352.926 229.69 352.926 230.864 352.926 231.944C353.318 259.861 352.926 282.001 352.438 282.394L352.433 282.389Z" fill="#FD7373"/>
<path d="M254.538 257.298C255.567 242.308 257.357 216.521 255.612 186.768C255.298 181.231 255.134 175.733 255.114 170.325C261.802 154.09 267.272 142.319 267.272 142.319H284.129C284.129 142.319 296.49 226.79 254.543 257.298H254.538Z" fill="#E55C5C"/>
<path d="M249.37 298.061L177.468 287.812C168.11 286.478 159.364 293.046 158.031 302.409L153.591 333.585C152.258 342.948 158.822 351.7 168.18 353.033L240.081 363.287C249.439 364.621 258.186 358.053 259.518 348.69L263.959 317.514C265.291 308.151 258.728 299.399 249.37 298.066V298.061Z" fill="#303030"/>
<path d="M253.428 307.355C251.409 302.291 247.048 298.295 241.514 296.942C241.514 296.942 241.504 296.942 241.499 296.942C240.957 296.813 240.405 296.698 239.838 296.619L225.523 294.579L226.478 287.852C226.691 286.35 226.309 284.852 225.394 283.633C224.479 282.419 223.146 281.623 221.644 281.414L217.91 280.882L202.878 278.737L200.168 278.349C197.066 277.907 194.172 280.076 193.734 283.185L192.779 289.912L168.066 286.385C158.674 285.046 149.897 291.638 148.555 301.037L144.065 332.575C142.727 341.974 149.315 350.755 158.708 352.094L230.48 362.333C231.748 362.517 233.001 362.547 234.225 362.452H234.24C236.204 362.303 238.093 361.81 239.843 361.039C245.119 358.711 249.127 353.785 249.997 347.68L254.492 316.147C254.93 313.072 254.517 310.067 253.438 307.365L253.428 307.355ZM197.265 283.683C197.399 282.743 198.135 282.031 199.03 281.887C199.239 281.852 199.447 281.847 199.671 281.877L202.864 282.33L214.693 284.021L221.142 284.942C222.301 285.106 223.111 286.185 222.947 287.345L221.992 294.071L196.31 290.405L197.27 283.678L197.265 283.683Z" fill="#686868"/>
<path d="M218.86 268.429C218.88 268.045 218.899 267.652 218.929 267.244C219.078 265.234 222.857 260.199 222.857 260.199L213.39 255.284L209.641 261.483C203.982 265.991 203.878 266.07 204.907 274.702C205.802 282.185 200.909 282.275 201.029 287.613C201.143 292.957 208.025 290.33 208.025 290.33C218.686 285.32 219.571 282.802 219.243 277.722C220.252 279.16 221.386 279.996 222.345 279.369C223.191 278.817 221.5 276.633 220.764 271.568C220.655 270.812 219.76 269.543 218.855 268.429H218.86Z" fill="#FFB27D"/>
<path d="M213.251 264.06C219.322 265.245 225.9 264.767 225.9 264.767C225.9 264.767 243.925 209.058 246.243 203.969C248.565 198.879 299.776 138.648 299.776 138.648L278.439 85.2227C278.439 85.2227 223.046 177.803 217.422 190.814C208.129 212.312 204.902 260.508 204.902 260.508C204.902 260.508 208.477 263.13 213.246 264.06H213.251Z" fill="#FD7373"/>
<path d="M284.864 51.7535C284.864 51.7535 288.175 51.2012 287.643 46.6339C287.106 42.0666 287.116 36.0962 290.826 37.2107C294.535 38.3251 294.719 41.2954 296.246 39.559C297.772 37.8226 297.797 30.5089 308.841 30.0014C319.885 29.4939 324.37 33.3399 329.506 31.0811C334.643 28.8223 334.911 21.0459 334.911 21.0459C334.911 21.0459 333.449 23.8221 331.247 24.7077C331.247 24.7077 339.814 12.9809 329.894 4.94075C319.974 -3.09936 309.86 2.16452 304.122 2.51279C291.477 3.27899 283.307 4.04022 279.175 12.354C275.043 20.6677 276.749 43.7582 284.864 51.7635V51.7535Z" fill="#263238"/>
</svg>
