<svg width="669" height="458" viewBox="0 0 669 458" fill="none" xmlns="http://www.w3.org/2000/svg">
<path d="M607.355 456.892C592.722 456.892 526.753 456.908 443.052 456.892C419.94 456.889 395.475 456.881 370.368 456.87C351.32 456.861 331.892 456.853 312.407 456.842C301.404 456.834 290.382 456.831 279.396 456.823C132.08 456.707 108.603 458.353 85.2221 456.892C41.7283 456.892 -69.6717 288.083 62.9454 177.244C114.443 134.205 48.3488 77.0242 133.884 34.0814C190.132 5.84062 230.986 55.4533 298.887 37.5794C349.051 24.3722 359.254 -6.604 458.431 1.98069C553.804 10.2338 555.724 88.441 525.469 153.021C506.366 193.795 600.029 181.204 643.34 242.054C717.267 345.912 608.013 455.347 607.358 456.892H607.355Z" fill="#F5F5F5"/>
<path d="M526.855 347.882C526.855 347.882 532.538 347.674 536.704 346.478C541.001 345.243 544.246 340.872 547.663 341.126C554.826 341.657 568.443 339.435 567.093 341.955C565.743 344.475 557.523 343.826 556.555 345.32C555.587 346.815 568.263 350.631 571.932 351.308C575.6 351.985 589.295 353.518 588.825 355.336C588.354 357.154 570.095 365.653 559.313 363.382C548.532 361.114 529.16 357.234 529.16 357.234L526.853 347.882H526.855Z" fill="#FFB27D"/>
<path d="M377.07 75.0757C361.215 66.8585 348.508 72.0225 348.508 72.0225C299.987 66.3307 285.836 122.843 286.492 142.289C287.139 161.729 291.972 177.241 269.04 197.381C241.709 221.383 248.066 253.102 262.24 264.339C268.379 269.213 276.416 272.885 284.929 275.651C295.458 279.077 306.705 281.114 315.973 282.324C321.085 282.993 325.589 283.41 329.042 283.664H329.048C329.609 283.705 330.135 283.741 330.638 283.775H330.641C334.13 284.009 336.194 284.059 336.194 284.059C336.589 263.182 345.819 252.511 357.364 247.687C357.367 247.687 357.372 247.687 357.375 247.684C360.053 246.562 362.853 245.755 365.702 245.211H365.705C373.59 243.7 381.798 244.189 388.613 245.512C398.34 247.408 405.215 251.005 404.208 252.945C409.857 254.299 414.826 254.851 419.175 254.691C425.527 254.464 430.551 252.715 434.414 249.74C469.959 222.364 407.542 90.8663 377.065 75.0784L377.07 75.0757Z" fill="#263238"/>
<path d="M380.473 204.434C380.473 204.434 417.07 209.651 429.744 226.756C445.754 248.366 461.502 309.29 472.961 320.196C484.42 331.102 532.321 347.37 532.321 347.37C532.321 347.37 534.089 357.864 528.595 361.069C519.291 366.496 472.311 364.136 445.054 349.514C418.899 335.484 400.374 304.801 400.374 304.801L380.471 204.437L380.473 204.434Z" fill="#32BA7C"/>
<path d="M183.685 291.357C183.685 291.357 176.038 277.075 168.914 276.163C161.79 275.254 148.893 270.358 149.711 273.096C150.53 275.834 158.714 276.84 159.364 278.498C160.014 280.155 146.829 281.363 143.099 281.294C139.37 281.225 130.658 280.169 130.755 282.045C130.852 283.919 145.636 292.984 156.656 292.912C167.672 292.84 180.791 298.289 180.791 298.289L183.688 291.354L183.685 291.357Z" fill="#FFB27D"/>
<path d="M311.538 307.301C311.538 307.301 305.855 316.4 296.119 326.562C284.389 338.791 266.76 352.551 246.088 353.715C236.214 354.27 226.874 351.316 218.466 346.638C218.444 346.627 218.436 346.627 218.436 346.627C194.654 333.406 178.312 306.464 178.312 306.464C175.022 294.174 181.037 287.013 181.037 287.013C181.037 287.013 231.782 302.137 236.892 300.56C257.464 294.207 271.845 240.436 284.01 223.256C294.213 208.847 329.819 204.437 329.819 204.437L311.538 307.304V307.301Z" fill="#32BA7C"/>
<path d="M296.12 326.563C284.39 338.792 266.761 352.552 246.089 353.715C236.215 354.271 226.875 351.317 218.467 346.639C219.425 346.855 243.892 352.143 255.352 335.41C267.04 318.34 280.506 290.771 294.59 301.638C300.666 306.329 299.457 316.508 296.12 326.563Z" fill="#2D9D6A"/>
<path d="M422.794 318.638C421.815 326.414 420.34 334.686 418.277 343.464C415.034 357.274 409.429 362.703 406.992 364.485C406.247 365.029 405.796 365.237 405.796 365.237L362.463 375.841L347.227 379.568L299.183 365.237C299.183 365.237 277.299 304.235 286.088 269.896C294.872 235.557 301.141 219.211 301.141 219.211C301.141 219.211 332.385 206.51 399.685 217.772C399.685 217.772 431.747 247.676 422.792 318.638H422.794Z" fill="#32BA7C"/>
<path d="M370.367 456.869C351.319 456.861 331.892 456.852 312.407 456.841C301.404 456.833 290.382 456.83 279.396 456.822C284.317 432.582 295.06 397.075 299.855 381.682C301.329 376.935 302.242 374.1 302.242 374.1H366.621C366.621 374.1 366.621 374.349 366.624 374.827V375.051C366.638 376.717 366.676 380.543 366.801 386.18C367.125 400.227 367.996 425.545 370.367 456.872V456.869Z" fill="#686868"/>
<path d="M443.051 456.892C419.939 456.889 395.474 456.881 370.367 456.87C351.319 456.861 331.892 456.853 312.407 456.842C306.553 443.356 313.143 406.475 316.817 388.828C317.024 387.839 317.218 386.905 317.403 386.043C317.464 385.758 317.528 385.476 317.586 385.205C318.405 381.428 318.95 379.171 318.95 379.171L328.45 378.35L331.867 378.052L339.835 377.364L365.232 375.167H365.243L366.627 375.049L403.052 371.896C403.052 371.896 405.068 374.595 408.192 379.154C418.329 393.942 440.141 428.275 442.727 453.402C442.838 454.48 442.946 455.643 443.054 456.889L443.051 456.892Z" fill="#686868"/>
<path d="M408.193 314.561C414.03 325.115 421.011 330.299 421.011 330.299C419.317 353.782 409.432 362.706 406.995 364.488L405.797 364.839L368.091 368.484C368.091 368.484 384.815 362.637 388.118 351.947C391.424 341.26 386.079 327.641 390.459 310.996C394.316 296.344 397.965 296.076 408.193 314.561Z" fill="#2D9D6A"/>
<path d="M298.443 362.683C298.443 362.683 307.996 370.229 326.969 370.611C349.633 371.066 405.796 364.839 405.796 364.839C405.796 364.839 408.291 371.801 408.189 379.154C408.189 379.154 339.596 396.434 299.854 381.677C299.854 381.677 294.727 372.045 298.44 362.681L298.443 362.683Z" fill="#303030"/>
<path d="M331.866 378.051C331.838 376.932 331.666 375.86 331.373 374.841C331.304 374.584 331.224 374.341 331.133 374.098C330.687 372.818 330.037 371.647 329.232 370.635C327.34 368.243 324.587 366.737 321.53 366.737C319.078 366.737 316.826 367.707 315.056 369.323C314.879 369.48 314.71 369.646 314.544 369.818C313.407 370.995 312.508 372.454 311.93 374.098C311.451 375.438 311.191 376.899 311.191 378.427C311.191 381.002 311.93 383.384 313.186 385.318C314.132 386.783 315.38 387.993 316.818 388.827C318.232 389.653 319.834 390.115 321.532 390.115C324.136 390.115 326.512 389.029 328.33 387.23C330.505 385.089 331.877 381.936 331.877 378.427C331.877 378.303 331.877 378.176 331.868 378.051H331.866ZM328.449 378.427C328.449 382.749 325.655 386.31 322.113 386.661H322.097C321.906 386.686 321.721 386.694 321.53 386.694C320.841 386.694 320.174 386.575 319.546 386.349H319.538C318.827 386.092 318.174 385.705 317.585 385.205C315.792 383.71 314.619 381.232 314.619 378.43C314.619 376.841 314.995 375.36 315.648 374.1C316.328 372.771 317.322 371.691 318.5 371C319.189 370.591 319.95 370.32 320.747 370.213C321.004 370.177 321.267 370.16 321.532 370.16C322.149 370.16 322.753 370.26 323.322 370.445C323.322 370.445 323.325 370.447 323.331 370.45H323.339C324.88 370.945 326.211 372.067 327.129 373.575V373.581C327.232 373.749 327.331 373.923 327.423 374.106C328.062 375.344 328.438 376.797 328.452 378.355V378.433L328.449 378.427Z" fill="#686868"/>
<path d="M378.81 207.568C376.251 202.769 368.922 178.36 368.977 165.687L366.803 166.048L330.226 172.177C330.226 172.177 331.058 181.916 331.083 191.092C331.083 191.17 331.083 191.244 331.083 191.322C331.127 199.29 330.978 203.214 332.577 213.089C333.299 217.543 331.775 249.519 347.091 247.223C352.555 246.405 380.503 210.74 378.813 207.571L378.81 207.568Z" fill="#FFB27D"/>
<path d="M330.222 172.174C330.222 172.174 331.054 181.913 331.079 191.089C351.547 190.6 362.367 174.804 366.802 166.045L330.224 172.174H330.222Z" fill="#E8945B"/>
<path d="M323.386 183.601C323.386 183.601 371.815 184.4 371.849 154.272C371.882 124.144 378.154 103.958 347.237 102.175C316.317 100.393 310.297 111.882 307.838 121.934C305.378 131.986 310.792 182.618 323.389 183.601H323.386Z" fill="#FFB27D"/>
<path d="M325.179 101.435C325.179 101.435 338.439 136.779 358.787 142.007C379.136 147.232 387.964 141.789 387.964 141.789C387.964 141.789 372.355 129.405 369.115 107.79C369.115 107.79 335.18 84.6164 325.179 101.438V101.435Z" fill="#263238"/>
<path d="M328.465 104.306C328.465 104.306 318.632 107.978 314.585 115.14C310.629 122.144 307.256 131.419 308.039 142.797C308.039 142.797 298.049 118.773 309.276 105.184C321.18 90.7726 328.465 104.309 328.465 104.309V104.306Z" fill="#263238"/>
<path d="M342.887 247.833C342.887 247.833 374.434 213.238 375.704 199.304C375.704 199.304 382.261 199.428 394.285 205.661C395.184 206.128 395.604 207.22 395.209 208.154C392.851 213.716 384.759 231.802 377.002 237.105C377.002 237.105 370.329 236.132 365.08 233.944C365.08 233.944 368.389 239.492 371.017 242.807C371.017 242.807 356.484 250.939 342.884 247.836L342.887 247.833Z" fill="#2D9D6A"/>
<path d="M331.14 198.723C331.14 198.723 331.868 220.979 342.884 247.83C342.884 247.83 327.953 244.898 320.325 234.333C320.325 234.333 322.738 228.696 324.769 227.397C324.769 227.397 320.289 225.59 317.459 228.193C317.459 228.193 314.463 208.573 316.754 205.136C317.705 203.71 328.813 198.104 331.14 198.726V198.723Z" fill="#2D9D6A"/>
<path d="M518.212 295.822H510.502C508.435 295.822 506.759 297.496 506.759 299.56V310.305C506.759 312.37 508.435 314.044 510.502 314.044H518.212C520.28 314.044 521.956 312.37 521.956 310.305V299.56C521.956 297.496 520.28 295.822 518.212 295.822Z" fill="#686868"/>
<path d="M518.212 295.822H510.502C508.435 295.822 506.759 297.496 506.759 299.56V305.548C506.759 307.612 508.435 309.286 510.502 309.286H518.212C520.28 309.286 521.956 307.612 521.956 305.548V299.56C521.956 297.496 520.28 295.822 518.212 295.822Z" fill="#BCBCBC"/>
<path d="M607.361 304.931C607.361 310.43 606.235 315.677 604.201 320.454C598.104 334.791 583.842 344.909 567.331 344.909H555.885C541.275 344.909 528.427 336.988 521.438 325.231C517.894 319.271 515.855 312.328 515.855 304.931C515.855 299.433 516.981 294.189 519.015 289.409C525.113 275.074 539.374 264.953 555.885 264.953H567.331C582.348 264.953 595.5 273.322 602.348 285.618C605.54 291.351 607.361 297.938 607.361 304.931Z" fill="#686868"/>
<path d="M574.103 327.939L570.369 352.154C569.873 354.03 571.29 355.865 573.232 355.865H583.045C585.148 355.865 587.076 354.691 588.039 352.823L603.291 322.441L574.103 327.937V327.939Z" fill="#686868"/>
<path d="M551.759 328.353L554.756 352.151C555.251 354.027 553.834 355.862 551.892 355.862H542.079C539.977 355.862 538.048 354.688 537.085 352.82L521.438 325.229L551.759 328.351V328.353Z" fill="#686868"/>
<path d="M616.897 315.798C616.67 315.798 616.446 315.771 616.222 315.71C614.482 315.251 613.486 313.179 613.624 310.294C613.757 307.468 614.944 304.484 616.872 302.108C617.727 301.055 618.712 300.135 619.813 299.356C619.293 298.499 618.593 297.679 617.65 296.974C616.045 295.772 614.388 295.427 612.584 295.916C607.731 297.231 603.62 304.155 603.288 304.934C603.136 305.351 602.679 305.572 602.256 305.432C601.827 305.288 601.595 304.824 601.736 304.395C601.88 303.964 603.083 301.898 604.757 299.85C607.679 296.283 610.224 294.929 611.845 294.424C614.249 293.675 616.532 294.089 618.632 295.662C619.672 296.441 620.535 297.388 621.202 298.48C622.867 297.554 624.743 296.91 626.782 296.576C627.23 296.504 627.651 296.805 627.725 297.253C627.8 297.701 627.496 298.121 627.048 298.195C625.177 298.502 623.462 299.093 621.946 299.944C622.411 301.063 622.707 302.301 622.823 303.633C623.061 306.377 622.51 309.372 621.31 311.85C620.087 314.375 618.477 315.793 616.894 315.793L616.897 315.798ZM620.541 300.859C619.65 301.516 618.847 302.282 618.145 303.144C616.429 305.255 615.378 307.891 615.259 310.375C615.165 312.345 615.732 313.889 616.637 314.127C617.55 314.367 618.867 313.14 619.832 311.143C620.892 308.954 621.398 306.202 621.188 303.779C621.113 302.909 620.931 301.892 620.538 300.859H620.541ZM603.296 304.918L603.291 304.931C603.291 304.931 603.294 304.92 603.296 304.918Z" fill="#686868"/>
<path d="M602.344 285.621C603.293 290.232 602.546 296.822 601.332 300.312C593.253 323.515 574.263 327.707 554.853 329.47C541.05 330.724 521.435 325.234 521.435 325.234C517.891 319.274 515.852 312.331 515.852 304.934C515.852 299.436 516.978 294.191 519.012 289.411C525.109 275.077 539.371 264.956 555.882 264.956H567.328C582.345 264.956 595.497 273.325 602.344 285.621Z" fill="#BCBCBC"/>
<path d="M551.165 274.969H535.42C533.832 274.969 532.546 274.008 532.546 272.82V251.351C532.546 250.984 532.662 250.652 532.861 250.362C533.63 249.246 535.656 248.787 537.161 249.638C543.139 253.023 552.933 260.378 554.034 272.673C554.145 273.917 552.831 274.969 551.165 274.969Z" fill="#BCBCBC"/>
<path d="M536.062 274.969H535.423C533.835 274.969 532.548 274.008 532.548 272.82V251.351C532.548 250.984 532.665 250.652 532.864 250.362C532.93 250.42 532.997 250.483 533.057 250.552C536.477 254.354 541.407 261.826 540.018 272.289C539.816 273.812 538.106 274.972 536.065 274.972L536.062 274.969Z" fill="#686868"/>
<path d="M527.762 289.321C527.762 288.028 528.814 286.978 530.108 286.978C531.403 286.978 532.454 288.028 532.454 289.321C532.454 290.614 531.403 291.664 530.108 291.664C528.814 291.664 527.762 290.614 527.762 289.321Z" fill="#686868"/>
</svg>
