<svg width="294" height="293" viewBox="0 0 294 293" fill="none" xmlns="http://www.w3.org/2000/svg">
<path d="M23.6414 294.009C23.6414 294.009 -22.2408 247.695 15.6737 199.842C49.3161 157.383 88.5395 160.285 117.317 177.517C129.573 184.856 164.91 178.421 194.987 135.217C236.002 76.2992 378.18 112.032 352.256 202.679C339.71 246.546 378.101 250.159 352.256 294.009H23.6414Z" fill="#DEDEDE"/>
<path d="M160.838 209.59L166.426 210.513C166.871 210.586 167.265 210.776 167.575 211.036C167.901 211.31 168.136 211.667 168.235 212.058C168.266 212.177 168.286 212.298 168.288 212.422C168.293 212.534 168.286 212.648 168.269 212.762L155.412 291.025C155.245 292.033 154.2 292.715 153.059 292.579C153.023 292.574 152.984 292.57 152.948 292.562L147.359 291.639C147.323 291.632 147.287 291.627 147.248 291.62C146.124 291.382 145.35 290.401 145.517 289.39L158.374 211.128C158.393 211.014 158.422 210.904 158.463 210.8C158.507 210.686 158.562 210.574 158.63 210.472C158.85 210.134 159.184 209.872 159.583 209.717C159.96 209.569 160.393 209.518 160.838 209.59Z" fill="#FFB93E"/>
<path d="M162.266 249.301L155.377 291.229C155.229 292.13 154.197 292.72 153.056 292.579C153.019 292.574 152.981 292.57 152.944 292.562L147.356 291.639C147.32 291.632 147.284 291.627 147.245 291.62C146.118 291.387 145.332 290.496 145.48 289.595L151.523 252.815C154.533 252.709 158.787 252.004 162.266 249.301Z" fill="#FFA412"/>
<path d="M157.126 218.767L156.98 219.656L166.873 221.299L167.02 220.41L157.126 218.767Z" fill="#FFA412"/>
<path d="M156.63 221.77L156.484 222.659L166.379 224.297L166.525 223.408L156.63 221.77Z" fill="#FFA412"/>
<path d="M156.028 225.396L155.882 226.285L165.775 227.925L165.922 227.036L156.028 225.396Z" fill="#FFA412"/>
<path d="M155.132 230.904L154.986 231.793L164.88 233.432L165.026 232.543L155.132 230.904Z" fill="#FFA412"/>
<path d="M154.167 236.75L154.021 237.639L163.915 239.278L164.061 238.389L154.167 236.75Z" fill="#FFA412"/>
<path d="M152.688 245.734L152.542 246.623L162.436 248.261L162.582 247.372L152.688 245.734Z" fill="#FFA412"/>
<path d="M151.312 254.149L151.166 255.038L161.059 256.68L161.205 255.791L151.312 254.149Z" fill="#FFA412"/>
<path d="M150.086 261.631L149.939 262.52L159.834 264.16L159.98 263.271L150.086 261.631Z" fill="#FFA412"/>
<path d="M157.591 215.89L157.445 216.779L167.34 218.416L167.486 217.527L157.591 215.89Z" fill="#FFA412"/>
<path d="M157.905 213.982L157.759 214.871L167.654 216.51L167.8 215.621L157.905 213.982Z" fill="#FFA412"/>
<path d="M158.202 212.167L158.056 213.056L167.95 214.694L168.096 213.805L158.202 212.167Z" fill="#FFA412"/>
<path d="M158.281 211.684L168.176 213.318L168.268 212.762C168.287 212.648 168.292 212.534 168.287 212.422L158.46 210.8C158.419 210.904 158.39 211.014 158.371 211.128L158.281 211.684Z" fill="#FFA412"/>
<path d="M158.629 210.472L168.234 212.058C168.135 211.67 167.9 211.313 167.574 211.036L159.58 209.714C159.183 209.872 158.849 210.135 158.629 210.472Z" fill="#FFA412"/>
<path d="M170.975 209.59L176.563 210.513C177.008 210.586 177.402 210.776 177.711 211.036C178.038 211.31 178.272 211.667 178.372 212.058C178.403 212.177 178.42 212.298 178.425 212.422C178.43 212.534 178.422 212.648 178.405 212.762L165.548 291.025C165.382 292.033 164.337 292.715 163.196 292.579C163.159 292.574 163.121 292.57 163.084 292.562L157.496 291.639C157.46 291.632 157.424 291.627 157.385 291.62C156.26 291.382 155.487 290.401 155.653 289.39L168.511 211.128C168.53 211.014 168.559 210.904 168.6 210.8C168.644 210.686 168.699 210.574 168.767 210.472C168.987 210.134 169.321 209.872 169.72 209.717C170.097 209.569 170.53 209.518 170.975 209.59Z" fill="#FFB93E"/>
<path d="M172.403 249.301L165.514 291.229C165.366 292.13 164.334 292.72 163.192 292.579C163.156 292.574 163.117 292.57 163.081 292.562L157.493 291.639C157.457 291.632 157.42 291.627 157.382 291.62C156.255 291.387 155.469 290.496 155.616 289.595L161.659 252.815C164.672 252.709 168.926 252.004 172.403 249.301Z" fill="#FFA412"/>
<path d="M167.264 218.769L167.118 219.657L177.012 221.3L177.158 220.411L167.264 218.769Z" fill="#FFA412"/>
<path d="M166.773 221.776L166.627 222.665L176.522 224.303L176.668 223.414L166.773 221.776Z" fill="#FFA412"/>
<path d="M166.167 225.398L166.021 226.286L175.914 227.927L176.06 227.038L166.167 225.398Z" fill="#FFA412"/>
<path d="M165.265 230.897L165.119 231.786L175.013 233.426L175.159 232.537L165.265 230.897Z" fill="#FFA412"/>
<path d="M164.305 236.748L164.159 237.637L174.053 239.277L174.199 238.388L164.305 236.748Z" fill="#FFA412"/>
<path d="M162.821 245.757L162.675 246.646L172.568 248.286L172.714 247.397L162.821 245.757Z" fill="#FFA412"/>
<path d="M161.45 254.121L161.304 255.01L171.199 256.65L171.345 255.76L161.45 254.121Z" fill="#FFA412"/>
<path d="M160.22 261.622L160.074 262.511L169.968 264.151L170.114 263.262L160.22 261.622Z" fill="#FFA412"/>
<path d="M167.727 215.909L167.581 216.798L177.475 218.438L177.621 217.55L167.727 215.909Z" fill="#FFA412"/>
<path d="M168.05 214.005L167.904 214.894L177.798 216.532L177.944 215.643L168.05 214.005Z" fill="#FFA412"/>
<path d="M168.34 212.166L168.194 213.055L178.089 214.693L178.235 213.804L168.34 212.166Z" fill="#FFA412"/>
<path d="M168.418 211.684L178.313 213.318L178.405 212.762C178.425 212.648 178.429 212.534 178.425 212.422L168.597 210.8C168.556 210.904 168.527 211.014 168.508 211.128L168.418 211.684Z" fill="#FFA412"/>
<path d="M168.767 210.472L178.371 212.058C178.272 211.67 178.038 211.313 177.711 211.036L169.717 209.714C169.323 209.872 168.987 210.135 168.767 210.472Z" fill="#FFA412"/>
<path d="M133.9 284.725L133.89 290.413C133.89 290.867 133.769 291.287 133.561 291.637C133.343 292.004 133.029 292.293 132.664 292.455C132.553 292.506 132.434 292.543 132.313 292.567C132.205 292.589 132.091 292.601 131.977 292.601L52.9997 292.412C51.9817 292.409 51.145 291.482 51.0942 290.328C51.0942 290.289 51.0918 290.253 51.0918 290.216L51.1015 284.528C51.1015 284.492 51.1015 284.453 51.1039 284.417C51.1571 283.263 51.9986 282.34 53.0166 282.343L131.994 282.532C132.108 282.532 132.221 282.544 132.33 282.569C132.451 282.593 132.567 282.632 132.681 282.683C133.046 282.845 133.36 283.137 133.576 283.506C133.781 283.851 133.9 284.271 133.9 284.725Z" fill="#FFB93E"/>
<path d="M95.1041 292.514L52.7922 292.412C51.883 292.409 51.1358 291.482 51.0923 290.328C51.0923 290.289 51.0898 290.253 51.0898 290.216L51.0995 284.528C51.0995 284.492 51.0995 284.453 51.1019 284.417C51.1503 283.263 51.8999 282.34 52.8091 282.343L89.9246 282.43C90.5122 285.395 91.8881 289.497 95.1041 292.514Z" fill="#FFA412"/>
<path d="M123.401 282.509L123.377 292.581L124.274 292.583L124.298 282.511L123.401 282.509Z" fill="#FFA412"/>
<path d="M120.362 282.5L120.338 292.572L121.236 292.574L121.259 282.502L120.362 282.5Z" fill="#FFA412"/>
<path d="M116.718 282.492L116.692 292.564L117.589 292.566L117.615 282.494L116.718 282.492Z" fill="#FFA412"/>
<path d="M111.133 282.48L111.11 292.551L112.007 292.554L112.03 282.482L111.133 282.48Z" fill="#FFA412"/>
<path d="M105.227 282.465L105.203 292.536L106.1 292.539L106.124 282.467L105.227 282.465Z" fill="#FFA412"/>
<path d="M96.1727 282.443L96.1489 292.514L97.0461 292.517L97.0698 282.445L96.1727 282.443Z" fill="#FFA412"/>
<path d="M87.6956 282.423L87.6719 292.495L88.569 292.497L88.5928 282.426L87.6956 282.423Z" fill="#FFA412"/>
<path d="M80.1268 282.404L80.1006 292.476L80.9977 292.478L81.0239 282.407L80.1268 282.404Z" fill="#FFA412"/>
<path d="M126.289 282.516L126.266 292.588L127.163 292.59L127.186 282.518L126.289 282.516Z" fill="#FFA412"/>
<path d="M128.2 282.519L128.179 292.59L129.076 292.592L129.097 282.521L128.2 282.519Z" fill="#FFA412"/>
<path d="M130.046 282.523L130.022 292.594L130.92 292.597L130.943 282.525L130.046 282.523Z" fill="#FFA412"/>
<path d="M131.43 282.527L131.411 292.599L131.972 292.601C132.088 292.601 132.199 292.589 132.308 292.567L132.328 282.566C132.219 282.542 132.105 282.53 131.991 282.53L131.43 282.527Z" fill="#FFA412"/>
<path d="M132.678 282.678L132.661 292.455C133.029 292.293 133.341 292.006 133.558 291.637L133.573 283.501C133.358 283.132 133.046 282.84 132.678 282.678Z" fill="#FFA412"/>
<path d="M125.473 274.632L125.463 280.32C125.463 280.774 125.342 281.194 125.134 281.544C124.917 281.91 124.602 282.199 124.237 282.362C124.126 282.413 124.008 282.449 123.887 282.474C123.778 282.496 123.664 282.508 123.551 282.508L44.5729 282.318C43.5549 282.316 42.7182 281.388 42.6675 280.235C42.6675 280.196 42.665 280.159 42.665 280.123L42.6747 274.435C42.6747 274.399 42.6747 274.36 42.6771 274.323C42.7303 273.17 43.5718 272.247 44.5898 272.249L123.567 272.439C123.618 272.439 123.669 272.441 123.717 272.446C123.739 272.446 123.761 272.448 123.783 272.453C123.807 272.456 123.831 272.461 123.853 272.463C123.87 272.465 123.887 272.47 123.904 272.473C124.024 272.497 124.141 272.536 124.252 272.587C124.269 272.594 124.286 272.601 124.303 272.611C124.319 272.618 124.336 272.626 124.351 272.635C124.382 272.652 124.416 272.672 124.448 272.689C124.465 272.701 124.484 272.713 124.503 272.725C124.52 272.737 124.535 272.747 124.552 272.759C124.583 272.779 124.612 272.801 124.641 272.825C124.675 272.852 124.706 272.881 124.74 272.91C124.764 272.932 124.791 272.956 124.815 272.98C124.815 272.98 124.818 272.983 124.82 272.985C124.837 273.002 124.851 273.019 124.868 273.036C124.917 273.087 124.963 273.143 125.006 273.199C125.021 273.216 125.033 273.233 125.045 273.25C125.057 273.267 125.069 273.284 125.081 273.303C125.105 273.34 125.13 273.376 125.151 273.415C125.354 273.76 125.475 274.18 125.473 274.632Z" fill="#FFB93E"/>
<path d="M86.6769 282.42L44.3649 282.318C43.4557 282.316 42.7085 281.388 42.665 280.235C42.665 280.196 42.6626 280.159 42.6626 280.123L42.6723 274.435C42.6723 274.399 42.6723 274.36 42.6747 274.323C42.7231 273.17 43.4727 272.247 44.3819 272.247L81.4949 272.337C81.5118 272.419 81.5287 272.502 81.5456 272.584C82.1647 275.528 83.5503 279.489 86.6769 282.42Z" fill="#FFA412"/>
<path d="M114.974 272.415L114.951 282.486L115.848 282.489L115.871 272.417L114.974 272.415Z" fill="#FFA412"/>
<path d="M111.935 272.409L111.912 282.481L112.809 282.483L112.832 272.411L111.935 272.409Z" fill="#FFA412"/>
<path d="M108.29 272.401L108.267 282.472L109.164 282.474L109.187 272.403L108.29 272.401Z" fill="#FFA412"/>
<path d="M102.707 272.386L102.684 282.457L103.581 282.46L103.604 272.388L102.707 272.386Z" fill="#FFA412"/>
<path d="M96.7994 272.374L96.7783 282.445L97.6754 282.447L97.6965 272.376L96.7994 272.374Z" fill="#FFA412"/>
<path d="M87.7479 272.351L87.7217 282.423L88.6188 282.425L88.645 272.354L87.7479 272.351Z" fill="#FFA412"/>
<path d="M79.2708 272.329L79.2471 282.401L80.1442 282.403L80.168 272.331L79.2708 272.329Z" fill="#FFA412"/>
<path d="M71.6973 272.313L71.6763 282.385L72.5734 282.386L72.5945 272.315L71.6973 272.313Z" fill="#FFA412"/>
<path d="M117.867 272.422L117.843 282.494L118.74 282.496L118.764 272.424L117.867 272.422Z" fill="#FFA412"/>
<path d="M119.777 272.427L119.753 282.499L120.65 282.501L120.674 272.429L119.777 272.427Z" fill="#FFA412"/>
<path d="M121.62 272.431L121.596 282.503L122.493 282.505L122.517 272.434L121.62 272.431Z" fill="#FFA412"/>
<path d="M123.007 272.434L122.987 282.505H123.548C123.664 282.505 123.776 282.493 123.884 282.471L123.904 272.47C123.795 272.446 123.681 272.434 123.568 272.434H123.007Z" fill="#FFA412"/>
<path d="M124.255 272.584L124.238 282.36C124.605 282.197 124.917 281.91 125.135 281.541L125.149 273.405C124.932 273.039 124.62 272.75 124.255 272.584Z" fill="#FFA412"/>
<path d="M129.572 264.818L129.562 270.506C129.562 270.96 129.441 271.38 129.233 271.73C129.015 272.096 128.701 272.388 128.336 272.548C128.225 272.599 128.106 272.635 127.985 272.66C127.874 272.682 127.763 272.694 127.649 272.694L48.6716 272.504C48.3548 272.504 48.0549 272.412 47.7914 272.254C47.2328 271.917 46.8338 271.271 46.7733 270.518C46.7709 270.486 46.7685 270.452 46.7661 270.421C46.7661 270.384 46.7637 270.345 46.7637 270.309L46.7733 264.621C46.7733 264.585 46.7733 264.546 46.7758 264.509C46.829 263.356 47.6705 262.433 48.6885 262.435L127.666 262.622C127.782 262.622 127.893 262.634 128.002 262.659C128.123 262.683 128.239 262.722 128.353 262.773C128.718 262.935 129.03 263.227 129.248 263.596C129.453 263.943 129.574 264.366 129.572 264.818Z" fill="#FFB93E"/>
<path d="M90.7745 272.606L48.4626 272.504C48.1797 272.504 47.9112 272.412 47.6767 272.254C47.1786 271.917 46.8231 271.271 46.7675 270.52C46.7651 270.489 46.7627 270.455 46.7602 270.423C46.7602 270.387 46.7578 270.348 46.7578 270.311L46.7675 264.623C46.7675 264.587 46.7675 264.548 46.7699 264.512C46.8183 263.358 47.5679 262.435 48.4771 262.438L85.5925 262.525C86.1632 265.41 87.4786 269.371 90.5109 272.361C90.6004 272.441 90.6875 272.524 90.7745 272.606Z" fill="#FFA412"/>
<path d="M131.482 254.751L131.473 260.439C131.473 260.893 131.352 261.313 131.144 261.663C130.926 262.03 130.612 262.321 130.247 262.481C130.135 262.532 130.017 262.569 129.896 262.593C129.785 262.615 129.673 262.627 129.56 262.627L50.5822 262.438C49.5642 262.435 48.7275 261.507 48.6767 260.354C48.6767 260.315 48.6743 260.279 48.6743 260.242L48.684 254.554C48.684 254.518 48.684 254.479 48.6864 254.443C48.7348 253.374 49.4578 252.505 50.3718 252.383C50.4468 252.373 50.5217 252.369 50.5991 252.369L129.577 252.558C129.693 252.558 129.804 252.57 129.913 252.594C130.034 252.619 130.15 252.658 130.263 252.709C130.629 252.871 130.943 253.163 131.158 253.532C131.364 253.877 131.485 254.297 131.482 254.751Z" fill="#FFB93E"/>
<path d="M92.6862 262.537L50.3742 262.435C49.465 262.433 48.7178 261.505 48.6743 260.351C48.6743 260.312 48.6719 260.276 48.6719 260.24L48.6815 254.552C48.6815 254.515 48.6815 254.476 48.684 254.44C48.7275 253.374 49.3731 252.502 50.1904 252.381C50.2557 252.371 50.3234 252.366 50.3911 252.366L87.5066 252.453C87.5066 252.458 87.509 252.466 87.509 252.47C88.1015 255.433 89.4749 259.528 92.6862 262.537Z" fill="#FFA412"/>
<path d="M125.692 244.679L125.682 250.367C125.682 250.821 125.562 251.242 125.354 251.591C125.136 251.958 124.822 252.247 124.456 252.41C124.345 252.461 124.227 252.497 124.106 252.522C124.07 252.529 124.031 252.536 123.995 252.541C123.975 252.543 123.954 252.546 123.932 252.548C123.912 252.551 123.891 252.553 123.869 252.553C123.835 252.556 123.801 252.556 123.767 252.556L44.7897 252.366C43.7717 252.364 42.935 251.436 42.8843 250.282C42.8843 250.246 42.8818 250.207 42.8818 250.171L42.8915 244.483C42.8915 244.444 42.8915 244.407 42.8939 244.371C42.8939 244.339 42.8963 244.31 42.8988 244.279C42.9761 243.351 43.5662 242.586 44.3351 242.363C44.3545 242.355 44.3738 242.353 44.3931 242.346C44.5261 242.312 44.664 242.295 44.8066 242.295L123.784 242.484C123.842 242.484 123.9 242.489 123.956 242.494C123.983 242.499 124.007 242.501 124.033 242.503C124.062 242.508 124.091 242.516 124.123 242.52C124.244 242.545 124.36 242.584 124.473 242.635C124.839 242.797 125.153 243.089 125.368 243.458C125.574 243.805 125.695 244.228 125.692 244.679Z" fill="#FFB93E"/>
<path d="M86.8962 252.468L44.5842 252.366C43.675 252.364 42.9278 251.436 42.8843 250.282C42.8843 250.246 42.8818 250.207 42.8818 250.171L42.8915 244.483C42.8915 244.444 42.8915 244.407 42.8939 244.371C42.8939 244.339 42.8963 244.31 42.8988 244.279C42.9689 243.329 43.5178 242.554 44.2263 242.348C44.2505 242.338 44.2747 242.333 44.2988 242.329C44.398 242.307 44.4971 242.295 44.6011 242.295L81.7166 242.382C81.7214 242.406 81.7263 242.428 81.7311 242.452C82.3259 245.408 83.6994 249.461 86.8768 252.451C86.8865 252.456 86.8913 252.463 86.8962 252.468Z" fill="#FFA412"/>
<path d="M125.545 234.678L125.535 240.366C125.535 240.82 125.414 241.241 125.206 241.59C124.989 241.959 124.674 242.246 124.307 242.409C124.22 242.448 124.128 242.479 124.033 242.503H124.031C124.004 242.511 123.98 242.516 123.956 242.52C123.847 242.542 123.734 242.554 123.62 242.554L44.6423 242.367C44.56 242.367 44.4754 242.36 44.3956 242.348C44.3642 242.346 44.3327 242.338 44.3013 242.331C43.4429 242.151 42.7803 241.306 42.7368 240.284C42.7368 240.245 42.7344 240.208 42.7344 240.172L42.744 234.484C42.744 234.445 42.744 234.409 42.7465 234.372C42.7997 233.219 43.6412 232.296 44.6592 232.298L123.639 232.483C123.69 232.483 123.741 232.485 123.789 232.49C123.811 232.493 123.833 232.495 123.854 232.497C123.879 232.5 123.903 232.505 123.925 232.51C123.941 232.512 123.958 232.517 123.975 232.519C124.096 232.544 124.212 232.582 124.326 232.633C124.343 232.641 124.357 232.648 124.377 232.658C124.394 232.665 124.408 232.672 124.425 232.682C124.457 232.699 124.49 232.718 124.522 232.735C124.556 232.757 124.592 232.779 124.626 232.804C124.657 232.825 124.686 232.847 124.715 232.869C124.749 232.896 124.781 232.925 124.812 232.954C124.839 232.976 124.863 232.998 124.887 233.025C124.887 233.025 124.889 233.027 124.892 233.029C124.909 233.044 124.926 233.063 124.94 233.08C124.989 233.131 125.034 233.187 125.078 233.243C125.092 233.26 125.105 233.277 125.117 233.294C125.129 233.314 125.141 233.328 125.153 233.348C125.177 233.384 125.201 233.42 125.223 233.459C125.426 233.804 125.547 234.224 125.545 234.678Z" fill="#FFB93E"/>
<path d="M86.7486 242.467L44.4367 242.365C44.4028 242.365 44.369 242.362 44.3351 242.36C44.2989 242.358 44.2626 242.353 44.2263 242.345C43.4138 242.214 42.7755 241.342 42.7344 240.279C42.7344 240.24 42.7319 240.203 42.7319 240.167L42.7416 234.479C42.7416 234.44 42.7416 234.404 42.744 234.367C42.7924 233.214 43.542 232.291 44.4512 232.291L81.5642 232.378C81.5811 232.461 81.5981 232.543 81.615 232.626C82.2244 235.545 83.5906 239.467 86.6664 242.392C86.6978 242.418 86.7244 242.443 86.7486 242.467Z" fill="#FFA412"/>
<path d="M129.644 224.864L129.634 230.552C129.634 231.006 129.513 231.426 129.305 231.776C129.088 232.143 128.773 232.432 128.408 232.595C128.297 232.646 128.178 232.682 128.058 232.706C127.949 232.728 127.835 232.74 127.721 232.74L48.7438 232.551C48.427 232.551 48.1272 232.459 47.8636 232.301C47.305 231.963 46.9085 231.317 46.8456 230.564C46.8432 230.533 46.8408 230.499 46.8384 230.467C46.8384 230.431 46.8359 230.392 46.8359 230.355L46.8456 224.668C46.8456 224.631 46.848 224.592 46.848 224.556C46.9012 223.402 47.7427 222.479 48.7607 222.482L127.738 222.669C127.854 222.669 127.966 222.681 128.074 222.705C128.195 222.73 128.311 222.768 128.425 222.819C128.79 222.982 129.105 223.274 129.32 223.643C129.525 223.99 129.644 224.41 129.644 224.864Z" fill="#FFB93E"/>
<path d="M90.8478 232.653L48.5358 232.553C48.2529 232.553 47.9869 232.461 47.7499 232.303C47.2518 231.966 46.8963 231.322 46.8407 230.569C46.8383 230.538 46.8359 230.504 46.8335 230.472C46.8335 230.436 46.8311 230.397 46.8311 230.36L46.8407 224.672C46.8407 224.636 46.8431 224.597 46.8431 224.561C46.8915 223.407 47.6435 222.484 48.5503 222.484L85.6658 222.572C86.2365 225.457 87.5519 229.42 90.5842 232.408C90.6737 232.488 90.7607 232.57 90.8478 232.653Z" fill="#FFA412"/>
<path d="M136.117 214.807L136.108 220.495C136.108 220.949 135.987 221.369 135.779 221.719C135.561 222.086 135.247 222.375 134.882 222.538C134.771 222.589 134.652 222.625 134.531 222.649C134.422 222.671 134.309 222.683 134.195 222.683L55.2174 222.494C54.1994 222.491 53.3628 221.564 53.312 220.41C53.312 220.374 53.3096 220.335 53.3096 220.298L53.3192 214.611C53.3192 214.574 53.3192 214.535 53.3217 214.499C53.37 213.433 54.093 212.561 55.0071 212.439C55.082 212.43 55.157 212.425 55.232 212.425L134.21 212.614C134.326 212.614 134.437 212.626 134.546 212.651C134.667 212.675 134.783 212.714 134.894 212.765C135.259 212.928 135.573 213.219 135.789 213.588C135.999 213.933 136.117 214.353 136.117 214.807Z" fill="#FFB93E"/>
<path d="M97.3219 222.596L55.01 222.494C54.1007 222.491 53.3536 221.564 53.31 220.41C53.31 220.374 53.3076 220.335 53.3076 220.298L53.3173 214.611C53.3173 214.574 53.3173 214.535 53.3197 214.499C53.3632 213.433 54.0089 212.561 54.8262 212.439C54.8915 212.43 54.9592 212.425 55.0269 212.425L92.1423 212.512C92.1423 212.517 92.1448 212.522 92.1448 212.529C92.7348 215.492 94.1107 219.587 97.3219 222.596Z" fill="#FFA412"/>
<path d="M125.765 204.726L125.756 210.414C125.756 210.868 125.635 211.288 125.427 211.638C125.209 212.005 124.895 212.294 124.53 212.456C124.418 212.507 124.3 212.544 124.179 212.568C124.143 212.575 124.104 212.583 124.068 212.587C124.039 212.592 124.007 212.595 123.978 212.597C123.964 212.597 123.949 212.6 123.935 212.602C123.903 212.602 123.874 212.604 123.843 212.604L44.8654 212.415C43.8474 212.413 43.0107 211.485 42.9599 210.331C42.9599 210.295 42.9575 210.256 42.9575 210.22L42.9672 204.532C42.9672 204.495 42.9696 204.456 42.9696 204.42C43.0228 203.266 43.8643 202.344 44.8823 202.346L123.86 202.535C123.894 202.535 123.928 202.535 123.961 202.54C124.041 202.545 124.121 202.557 124.196 202.572C124.317 202.596 124.433 202.635 124.547 202.686C124.605 202.713 124.66 202.739 124.711 202.771C124.745 202.79 124.779 202.81 124.81 202.832C124.813 202.832 124.817 202.834 124.82 202.839C124.851 202.861 124.885 202.885 124.917 202.909C124.924 202.912 124.929 202.917 124.934 202.922C124.963 202.943 124.992 202.968 125.018 202.992C125.086 203.05 125.149 203.113 125.209 203.184C125.229 203.206 125.245 203.225 125.262 203.247C125.265 203.249 125.27 203.254 125.272 203.259C125.284 203.271 125.294 203.286 125.306 203.3C125.308 203.303 125.311 203.305 125.313 203.31C125.332 203.334 125.352 203.361 125.369 203.39C125.395 203.429 125.42 203.468 125.444 203.509C125.647 203.852 125.768 204.272 125.765 204.726Z" fill="#FFB93E"/>
<path d="M86.9693 212.515L44.6574 212.413C43.7482 212.41 43.001 211.482 42.9575 210.329C42.9575 210.292 42.9551 210.254 42.9551 210.217L42.9648 204.529C42.9648 204.493 42.9672 204.454 42.9672 204.418C43.0155 203.264 43.7676 202.341 44.6744 202.341L81.7898 202.431C81.8043 202.506 81.8212 202.584 81.8381 202.664C82.4475 205.605 83.8282 209.566 86.95 212.5C86.9597 212.502 86.9645 212.51 86.9693 212.515Z" fill="#FFA412"/>
<path d="M131.591 194.9L131.581 200.588C131.581 201.042 131.46 201.462 131.252 201.812C131.034 202.178 130.72 202.467 130.355 202.63C130.244 202.681 130.125 202.718 130.004 202.742C129.893 202.764 129.782 202.776 129.668 202.776L50.6906 202.586C50.3835 202.586 50.0933 202.501 49.837 202.351C49.2615 202.018 48.8504 201.36 48.79 200.59C48.7876 200.561 48.7851 200.532 48.7851 200.5C48.7851 200.464 48.7827 200.425 48.7827 200.388L48.7924 194.701C48.7924 194.662 48.7924 194.625 48.7948 194.589C48.8432 193.52 49.5662 192.651 50.4802 192.529C50.5552 192.52 50.6301 192.515 50.7075 192.515L129.685 192.704C129.801 192.704 129.912 192.716 130.021 192.741C130.142 192.765 130.258 192.804 130.372 192.855C130.737 193.018 131.049 193.309 131.267 193.678C131.472 194.025 131.591 194.446 131.591 194.9Z" fill="#FFB93E"/>
<path d="M92.795 202.688L50.4831 202.586C50.2099 202.586 49.9511 202.501 49.7214 202.351C49.2088 202.018 48.8412 201.36 48.788 200.593C48.7856 200.563 48.7832 200.534 48.7832 200.503C48.7832 200.466 48.7808 200.427 48.7808 200.391L48.7904 194.703C48.7904 194.664 48.7904 194.628 48.7928 194.591C48.8364 193.525 49.482 192.653 50.2993 192.532C50.3646 192.522 50.4323 192.517 50.5 192.517L87.6154 192.605C87.6154 192.61 87.6179 192.614 87.6179 192.622C88.191 195.512 89.5112 199.473 92.5508 202.458C92.6306 202.533 92.7128 202.611 92.795 202.688Z" fill="#FFA412"/>
<path d="M125.801 184.831L125.791 190.519C125.791 190.973 125.67 191.393 125.462 191.743C125.244 192.112 124.93 192.401 124.565 192.561C124.454 192.612 124.335 192.648 124.214 192.673C124.178 192.68 124.139 192.687 124.103 192.692C124.084 192.695 124.062 192.697 124.04 192.699C124.021 192.702 123.999 192.702 123.977 192.704C123.943 192.707 123.91 192.707 123.876 192.707L44.8981 192.517C43.8801 192.515 43.0434 191.587 42.9926 190.434C42.9926 190.395 42.9902 190.358 42.9902 190.322L42.9999 184.634C42.9999 184.597 42.9999 184.559 43.0023 184.522C43.0555 183.369 43.897 182.446 44.915 182.448L123.893 182.638C124.009 182.638 124.12 182.65 124.229 182.674C124.35 182.698 124.466 182.737 124.579 182.788C124.945 182.951 125.259 183.242 125.474 183.611C125.682 183.956 125.803 184.376 125.801 184.831Z" fill="#FFB93E"/>
<path d="M87.0045 192.617L44.6926 192.517C43.7834 192.515 43.0362 191.587 42.9926 190.434C42.9926 190.395 42.9902 190.358 42.9902 190.322L42.9999 184.634C42.9999 184.597 42.9999 184.559 43.0023 184.522C43.0507 183.369 43.8003 182.446 44.7095 182.448L81.825 182.536C82.4101 185.498 83.7812 189.591 86.9852 192.605C86.9924 192.607 86.9997 192.612 87.0045 192.617Z" fill="#FFA412"/>
<path d="M119.073 262.601L119.049 272.672L119.946 272.674L119.97 262.603L119.073 262.601Z" fill="#FFA412"/>
<path d="M116.031 262.595L116.01 272.666L116.907 272.668L116.928 262.597L116.031 262.595Z" fill="#FFA412"/>
<path d="M112.388 262.587L112.366 272.658L113.263 272.66L113.285 262.589L112.388 262.587Z" fill="#FFA412"/>
<path d="M106.806 262.571L106.782 272.643L107.679 272.645L107.703 262.574L106.806 262.571Z" fill="#FFA412"/>
<path d="M100.898 262.559L100.875 272.63L101.772 272.633L101.795 262.561L100.898 262.559Z" fill="#FFA412"/>
<path d="M91.8441 262.537L91.8203 272.608L92.7174 272.611L92.7412 262.539L91.8441 262.537Z" fill="#FFA412"/>
<path d="M83.3668 262.518L83.3457 272.589L84.2428 272.591L84.2639 262.52L83.3668 262.518Z" fill="#FFA412"/>
<path d="M75.7972 262.498L75.7734 272.57L76.6705 272.572L76.6943 262.501L75.7972 262.498Z" fill="#FFA412"/>
<path d="M121.965 262.608L121.941 272.679L122.838 272.681L122.862 262.61L121.965 262.608Z" fill="#FFA412"/>
<path d="M123.875 262.613L123.854 272.684L124.751 272.686L124.772 262.615L123.875 262.613Z" fill="#FFA412"/>
<path d="M125.719 262.617L125.695 272.689L126.592 272.691L126.616 262.619L125.719 262.617Z" fill="#FFA412"/>
<path d="M127.104 262.62L127.087 272.691L127.648 272.694C127.764 272.694 127.876 272.682 127.985 272.66L128.004 262.659C127.895 262.634 127.781 262.622 127.668 262.622L127.104 262.62Z" fill="#FFA412"/>
<path d="M128.352 262.77L128.335 272.548C128.703 272.388 129.015 272.099 129.233 271.729L129.247 263.594C129.029 263.224 128.718 262.933 128.352 262.77Z" fill="#FFA412"/>
<path d="M93.7538 252.468L93.73 262.54L94.6271 262.542L94.6508 252.47L93.7538 252.468Z" fill="#FFA412"/>
<path d="M85.2774 252.449L85.2539 262.52L86.1511 262.522L86.1746 252.451L85.2774 252.449Z" fill="#FFA412"/>
<path d="M77.7083 252.43L77.6846 262.502L78.5817 262.504L78.6054 252.432L77.7083 252.43Z" fill="#FFA412"/>
<path d="M124.749 262.615L124.769 252.543L123.98 252.541C124.021 252.536 124.065 252.531 124.106 252.522L124.123 242.518C124.067 242.506 124.012 242.499 123.956 242.491L123.973 232.731H124.324L124.307 242.406C124.674 242.244 124.986 241.957 125.204 241.588L125.218 233.452C125.04 233.148 124.793 232.901 124.508 232.731H124.822L124.841 222.659L123.944 222.657L123.927 232.507C123.833 232.49 123.739 232.48 123.639 232.48L123.078 232.478L123.059 242.55H123.226L123.207 252.551L123.768 252.553C123.801 252.553 123.835 252.551 123.869 252.548L123.85 262.61L124.749 262.615Z" fill="#FFA412"/>
<path d="M125.784 252.544L125.76 262.616L126.657 262.618L126.681 252.546L125.784 252.544Z" fill="#FFA412"/>
<path d="M127.632 252.548L127.605 262.62L128.503 262.622L128.529 252.551L127.632 252.548Z" fill="#FFA412"/>
<path d="M129.015 252.551L128.996 262.622L129.557 262.625C129.673 262.625 129.784 262.612 129.893 262.591L129.91 252.59C129.801 252.565 129.687 252.553 129.574 252.553L129.015 252.551Z" fill="#FFA412"/>
<path d="M130.261 252.704L130.244 262.481C130.611 262.319 130.923 262.032 131.141 261.663L131.155 253.527C130.94 253.155 130.628 252.866 130.261 252.704Z" fill="#FFA412"/>
<path d="M116.068 252.536L116.087 242.464H115.92L115.94 232.463L115.04 232.461L115.023 242.535H115.19L115.171 252.519L114.295 252.517L114.276 262.588L115.175 262.591L115.192 252.536H116.068Z" fill="#FFA412"/>
<path d="M109.407 242.45L109.24 242.447L109.257 232.449L108.36 232.446L108.343 242.518H108.507L108.49 252.519H108.71L108.693 262.576L109.591 262.578L109.61 252.507L109.387 252.504L109.407 242.45Z" fill="#FFA412"/>
<path d="M124.474 242.632L124.457 252.41C124.825 252.249 125.137 251.958 125.354 251.591L125.369 243.455C125.151 243.086 124.839 242.795 124.474 242.632Z" fill="#FFA412"/>
<path d="M103.673 232.434L102.776 232.432L102.757 242.506H102.924L102.904 252.49H102.805L102.788 262.561L103.685 262.564L103.702 252.507H103.801L103.821 242.435H103.654L103.673 232.434Z" fill="#FFA412"/>
<path d="M97.7666 232.42L96.8695 232.417L96.8525 242.491H97.017L97.0001 252.492L97.8972 252.495L97.9165 242.421H97.7497L97.7666 232.42Z" fill="#FFA412"/>
<path d="M88.7123 232.398H87.8152L87.7959 242.469H87.9627L87.9458 252.47L88.8429 252.473L88.8598 242.399H88.6954L88.7123 232.398Z" fill="#FFA412"/>
<path d="M80.2353 232.378L79.3382 232.376L79.3213 242.45H79.4857L79.4688 252.449L80.3659 252.451L80.3853 242.38H80.2184L80.2353 232.378Z" fill="#FFA412"/>
<path d="M72.666 232.361L71.7689 232.359L71.7495 242.43H71.9164L71.8994 252.432L72.7966 252.434L72.8135 242.362L72.6491 242.36L72.666 232.361Z" fill="#FFA412"/>
<path d="M118.832 232.471L117.935 232.468L117.916 242.542H118.083L118.064 252.526H117.94L117.921 262.598L118.82 262.6L118.837 252.543H118.961L118.98 242.472H118.813L118.832 232.471Z" fill="#FFA412"/>
<path d="M120.743 232.475L120.02 232.473L120.039 222.649L119.14 222.647L119.123 232.721H119.846L119.827 242.545L119.994 242.547L119.974 252.546L120.874 252.548L120.891 242.477H120.724L120.743 232.475Z" fill="#FFA412"/>
<path d="M116.107 222.641L116.083 232.712L116.98 232.714L117.004 222.643L116.107 222.641Z" fill="#FFA412"/>
<path d="M112.441 232.456L112.004 232.454L111.987 242.528H112.151L112.134 252.529L113.031 252.531L113.048 242.457H112.884L112.901 232.706H113.339L113.355 222.635L112.458 222.632L112.441 232.456Z" fill="#FFA412"/>
<path d="M106.879 222.618L106.853 232.689L107.75 232.692L107.776 222.62L106.879 222.618Z" fill="#FFA412"/>
<path d="M100.972 222.605L100.948 232.677L101.845 232.679L101.869 222.608L100.972 222.605Z" fill="#FFA412"/>
<path d="M91.9171 222.583L91.8936 232.655L92.7907 232.657L92.8142 222.585L91.9171 222.583Z" fill="#FFA412"/>
<path d="M83.4393 222.564L83.418 232.635L84.3151 232.637L84.3364 222.566L83.4393 222.564Z" fill="#FFA412"/>
<path d="M75.8704 222.545L75.8467 232.616L76.7438 232.618L76.7676 222.547L75.8704 222.545Z" fill="#FFA412"/>
<path d="M122.014 232.478H121.69L121.671 242.55H121.838L121.818 252.536L120.977 252.534L120.96 262.605L121.857 262.608L121.876 252.551L122.718 252.553L122.735 242.482H122.568L122.587 232.728H122.911L122.931 222.657L122.034 222.654L122.014 232.478Z" fill="#FFA412"/>
<path d="M125.791 222.663L125.768 232.735L126.665 232.737L126.688 222.666L125.791 222.663Z" fill="#FFA412"/>
<path d="M128.055 232.706L128.075 222.705C127.963 222.681 127.852 222.669 127.739 222.669L127.178 222.666L127.158 232.738L127.719 232.74C127.835 232.74 127.947 232.728 128.055 232.706Z" fill="#FFA412"/>
<path d="M129.305 231.776L129.32 223.64C129.102 223.271 128.79 222.982 128.425 222.817L128.408 232.595C128.773 232.432 129.085 232.143 129.305 231.776Z" fill="#FFA412"/>
<path d="M125.618 212.591L125.594 222.663L126.491 222.665L126.515 212.593L125.618 212.591Z" fill="#FFA412"/>
<path d="M113.351 212.562L113.327 222.634L114.224 222.636L114.248 212.564L113.351 212.562Z" fill="#FFA412"/>
<path d="M107.444 212.547L107.42 222.619L108.317 222.621L108.341 212.549L107.444 212.547Z" fill="#FFA412"/>
<path d="M98.3895 212.525L98.3657 222.597L99.2628 222.599L99.2866 212.527L98.3895 212.525Z" fill="#FFA412"/>
<path d="M89.9139 212.506L89.8901 222.577L90.7872 222.579L90.811 212.508L89.9139 212.506Z" fill="#FFA412"/>
<path d="M82.3409 212.487L82.3198 222.558L83.2169 222.56L83.238 212.489L82.3409 212.487Z" fill="#FFA412"/>
<path d="M128.51 212.598L128.486 222.67L129.383 222.672L129.407 212.6L128.51 212.598Z" fill="#FFA412"/>
<path d="M130.418 212.601L130.395 222.672L131.292 222.674L131.315 212.603L130.418 212.601Z" fill="#FFA412"/>
<path d="M132.263 212.605L132.24 222.677L133.137 222.679L133.16 212.607L132.263 212.605Z" fill="#FFA412"/>
<path d="M133.648 212.609L133.631 222.681L134.192 222.683C134.308 222.683 134.42 222.671 134.528 222.649L134.548 212.648C134.439 212.626 134.325 212.612 134.212 212.612L133.648 212.609Z" fill="#FFA412"/>
<path d="M134.895 212.76L134.878 222.538C135.246 222.375 135.558 222.086 135.776 221.719L135.79 213.583C135.575 213.214 135.263 212.923 134.895 212.76Z" fill="#FFA412"/>
<path d="M115.245 212.58L116.142 212.583L116.161 202.511L115.286 202.509L115.303 192.685L116.178 192.687L116.197 182.616L115.3 182.613L115.281 192.668H114.406L114.386 202.739L115.264 202.742L115.245 212.58Z" fill="#FFA412"/>
<path d="M112.23 202.502L112.203 212.574L113.1 212.576L113.127 202.505L112.23 202.502Z" fill="#FFA412"/>
<path d="M97.0931 202.467L97.0693 212.539L97.9664 212.541L97.9902 202.469L97.0931 202.467Z" fill="#FFA412"/>
<path d="M88.0386 202.445L88.0151 212.517L88.9122 212.519L88.9357 202.447L88.0386 202.445Z" fill="#FFA412"/>
<path d="M79.5633 202.423L79.5396 212.495L80.4367 212.497L80.4604 202.425L79.5633 202.423Z" fill="#FFA412"/>
<path d="M71.9918 202.407L71.9683 212.478L72.8654 212.48L72.8889 202.409L71.9918 202.407Z" fill="#FFA412"/>
<path d="M118.136 212.587L118.931 212.59L118.912 222.647L119.809 222.649L119.828 212.578L119.033 212.575L119.052 202.518H118.929L118.946 192.694H119.069L119.088 182.62H118.191L118.172 192.675H118.049L118.029 202.749H118.155L118.136 212.587Z" fill="#FFA412"/>
<path d="M120.065 202.521L120.046 212.593L120.944 212.594L120.962 202.523L120.065 202.521Z" fill="#FFA412"/>
<path d="M124.702 202.764H124.859L124.878 192.692L124.09 192.69C124.131 192.685 124.175 192.68 124.216 192.67L124.235 182.669C124.126 182.645 124.013 182.633 123.899 182.633L123.338 182.63L123.319 192.702H123.88C123.913 192.702 123.947 192.699 123.981 192.697L123.964 202.533C123.93 202.531 123.897 202.528 123.863 202.528H123.302L123.282 212.585H122.791L122.811 202.528L121.969 202.526L121.986 192.702L122.828 192.704L122.847 182.633L121.948 182.628L121.928 192.685L121.087 192.682L121.067 202.754L121.909 202.756L121.892 212.597L122.574 212.6L122.555 222.657L123.452 222.659L123.471 212.602H123.839C123.955 212.602 124.066 212.59 124.175 212.568L124.192 202.764H124.542L124.525 212.456C124.893 212.296 125.205 212.007 125.422 211.638L125.437 203.502C125.256 203.186 124.999 202.934 124.702 202.764Z" fill="#FFA412"/>
<path d="M93.8619 192.618L93.8408 202.69L94.7379 202.692L94.759 192.62L93.8619 192.618Z" fill="#FFA412"/>
<path d="M85.3871 192.598L85.3633 202.67L86.2604 202.672L86.2842 192.601L85.3871 192.598Z" fill="#FFA412"/>
<path d="M77.8158 192.58L77.792 202.651L78.6891 202.653L78.7129 192.582L77.8158 192.58Z" fill="#FFA412"/>
<path d="M125.891 192.694L125.868 202.765L126.765 202.767L126.788 192.696L125.891 192.694Z" fill="#FFA412"/>
<path d="M127.737 192.698L127.713 202.77L128.61 202.772L128.634 192.7L127.737 192.698Z" fill="#FFA412"/>
<path d="M129.121 192.702L129.102 202.773H129.663C129.779 202.773 129.89 202.761 129.999 202.739L130.016 192.738C129.907 192.714 129.793 192.702 129.679 192.702H129.121Z" fill="#FFA412"/>
<path d="M131.249 201.812L131.264 193.676C131.046 193.307 130.734 193.018 130.369 192.852L130.352 202.63C130.72 202.467 131.032 202.178 131.249 201.812Z" fill="#FFA412"/>
<path d="M112.263 182.606L112.239 192.677L113.136 192.68L113.16 182.608L112.263 182.606Z" fill="#FFA412"/>
<path d="M109.513 182.599L108.616 182.596L108.599 192.668L108.819 192.67L108.802 202.494H108.58L108.563 212.566L109.46 212.568L109.477 202.727H109.699L109.716 192.656H109.496L109.513 182.599Z" fill="#FFA412"/>
<path d="M103.014 192.639H102.914L102.895 202.713H102.994L102.977 212.551L103.874 212.554L103.894 202.482H103.795L103.811 192.658H103.911L103.93 182.587L103.033 182.584L103.014 192.639Z" fill="#FFA412"/>
<path d="M97.1273 182.57L97.1035 192.642L98.0006 192.644L98.0244 182.573L97.1273 182.57Z" fill="#FFA412"/>
<path d="M88.0746 182.548L88.0508 192.62L88.9479 192.622L88.9716 182.55L88.0746 182.548Z" fill="#FFA412"/>
<path d="M79.599 182.529L79.5728 192.6L80.4699 192.603L80.4961 182.531L79.599 182.529Z" fill="#FFA412"/>
<path d="M72.0279 182.51L72.0068 192.582L72.904 192.583L72.9251 182.512L72.0279 182.51Z" fill="#FFA412"/>
<path d="M120.107 182.624L120.081 192.695L120.978 192.698L121.004 182.626L120.107 182.624Z" fill="#FFA412"/>
<path d="M124.582 182.783L124.565 192.561C124.933 192.401 125.245 192.112 125.463 191.743L125.477 183.607C125.259 183.235 124.947 182.946 124.582 182.783Z" fill="#FFA412"/>
<path d="M150.897 209.637L156.473 210.63C156.918 210.71 157.31 210.902 157.615 211.167C157.939 211.446 158.166 211.805 158.263 212.196C158.294 212.315 158.309 212.439 158.311 212.561C158.314 212.673 158.306 212.787 158.287 212.901L144.434 290.991C144.255 291.999 143.2 292.664 142.062 292.514C142.025 292.509 141.987 292.504 141.95 292.497L136.374 291.501C136.338 291.494 136.302 291.486 136.263 291.479C135.141 291.227 134.382 290.236 134.558 289.228L148.411 211.138C148.421 211.087 148.431 211.038 148.445 210.989C148.45 210.968 148.457 210.948 148.465 210.926C148.472 210.904 148.479 210.88 148.489 210.858C148.494 210.841 148.501 210.827 148.508 210.81C148.554 210.696 148.61 210.586 148.68 210.484C148.69 210.47 148.699 210.455 148.711 210.438C148.721 210.424 148.733 210.409 148.743 210.394C148.764 210.365 148.789 210.336 148.813 210.309C148.827 210.292 148.842 210.278 148.856 210.261C148.871 210.246 148.883 210.232 148.897 210.22C148.924 210.193 148.951 210.169 148.977 210.142C149.009 210.113 149.043 210.086 149.076 210.059C149.103 210.037 149.13 210.018 149.156 209.999C149.159 209.999 149.159 209.996 149.161 209.996C149.18 209.984 149.2 209.969 149.219 209.957C149.277 209.918 149.34 209.882 149.403 209.848C149.422 209.838 149.442 209.829 149.458 209.819C149.478 209.809 149.497 209.802 149.517 209.792C149.558 209.775 149.596 209.758 149.637 209.741C150.019 209.603 150.452 209.557 150.897 209.637Z" fill="#FFB93E"/>
<path d="M151.818 249.362L144.397 291.197C144.237 292.096 143.197 292.674 142.059 292.518C142.022 292.514 141.984 292.509 141.947 292.502L136.371 291.506C136.335 291.498 136.299 291.491 136.26 291.484C135.138 291.236 134.362 290.335 134.521 289.434L141.031 252.738C141.115 252.735 141.198 252.733 141.282 252.73C144.278 252.631 148.404 251.948 151.818 249.362Z" fill="#FFA412"/>
<path d="M147.048 218.756L146.891 219.642L156.762 221.412L156.92 220.525L147.048 218.756Z" fill="#FFA412"/>
<path d="M146.517 221.758L146.359 222.645L156.232 224.41L156.389 223.523L146.517 221.758Z" fill="#FFA412"/>
<path d="M145.884 225.347L145.727 226.234L155.599 228.001L155.757 227.114L145.884 225.347Z" fill="#FFA412"/>
<path d="M144.903 230.869L144.746 231.756L154.618 233.522L154.775 232.635L144.903 230.869Z" fill="#FFA412"/>
<path d="M143.861 236.723L143.704 237.61L153.577 239.374L153.734 238.487L143.861 236.723Z" fill="#FFA412"/>
<path d="M142.297 245.681L142.14 246.568L152.012 248.335L152.17 247.448L142.297 245.681Z" fill="#FFA412"/>
<path d="M140.789 254.055L140.631 254.942L150.504 256.707L150.661 255.82L140.789 254.055Z" fill="#FFA412"/>
<path d="M139.463 261.555L139.306 262.442L149.177 264.211L149.335 263.324L139.463 261.555Z" fill="#FFA412"/>
<path d="M147.563 215.882L147.405 216.769L157.278 218.536L157.435 217.649L147.563 215.882Z" fill="#FFA412"/>
<path d="M147.917 214.008L147.76 214.895L157.632 216.662L157.79 215.775L147.917 214.008Z" fill="#FFA412"/>
<path d="M148.223 212.167L148.065 213.054L157.938 214.821L158.095 213.934L148.223 212.167Z" fill="#FFA412"/>
<path d="M148.315 211.696L158.188 213.457L158.287 212.903C158.307 212.789 158.316 212.677 158.311 212.563L148.506 210.814C148.465 210.919 148.433 211.028 148.412 211.142L148.315 211.696Z" fill="#FFA412"/>
<path d="M148.677 210.489L158.262 212.199C158.168 211.808 157.938 211.448 157.614 211.169L149.639 209.746C149.24 209.897 148.902 210.154 148.677 210.489Z" fill="#FFA412"/>
<path d="M135.966 138.243C149.542 124.608 149.542 102.502 135.966 88.8677C122.391 75.2331 100.38 75.2331 86.8048 88.8677C73.2293 102.502 73.2293 124.608 86.8048 138.243C100.38 151.878 122.391 151.878 135.966 138.243Z" fill="#E2810E"/>
<path d="M142.35 123.889C147.226 105.239 136.126 86.1499 117.557 81.2522C98.9881 76.3544 79.9816 87.5028 75.1051 106.153C70.2286 124.803 81.3287 143.892 99.8978 148.79C118.467 153.688 137.473 142.539 142.35 123.889Z" fill="#FFB93E"/>
<path d="M108.983 147.192C97.8067 147.192 86.9591 141.249 81.192 130.743C77.1078 123.301 76.1526 114.709 78.5054 106.546C80.8558 98.3835 86.2313 91.6295 93.6403 87.5275C101.049 83.4256 109.605 82.4663 117.732 84.8269C125.859 87.1875 132.584 92.5864 136.668 100.028C145.1 115.389 139.517 134.774 124.222 143.243C119.386 145.922 114.148 147.192 108.983 147.192ZM108.886 85.4608C103.925 85.4608 99.0158 86.7188 94.552 89.1912C87.5854 93.0478 82.5316 99.3987 80.319 107.076C78.1089 114.75 79.006 122.833 82.8459 129.829C88.2673 139.707 98.4717 145.297 108.978 145.297C113.836 145.297 118.76 144.103 123.306 141.586C137.688 133.623 142.938 115.394 135.009 100.951C131.169 93.9537 124.846 88.8779 117.202 86.6557C114.463 85.8542 111.665 85.4608 108.886 85.4608Z" fill="#FFA412"/>
<path d="M117.185 121.358C116.927 120.717 116.61 120.193 116.233 119.777C115.855 119.362 115.384 119.041 114.816 118.811C114.247 118.582 113.573 118.429 112.792 118.359C112.011 118.286 111.092 118.281 110.03 118.34C108.202 118.429 106.51 118.429 104.952 118.347C103.395 118.262 101.99 118.007 100.73 117.577C99.4729 117.15 98.3678 116.499 97.4151 115.627C96.4623 114.755 95.6862 113.572 95.0816 112.079C94.5593 110.784 94.3078 109.509 94.3344 108.256C94.361 107.003 94.6391 105.808 95.1663 104.669C95.6958 103.53 96.4527 102.471 97.4368 101.492C98.421 100.513 99.6204 99.6561 101.035 98.9202L99.057 94.029L102.977 92.4309L104.981 97.3902C106.459 97.0016 107.885 96.8534 109.256 96.9506C110.628 97.0477 111.895 97.3829 113.06 97.956C114.223 98.5292 115.27 99.3404 116.199 100.392C117.127 101.444 117.901 102.731 118.515 104.253L111.435 107.141C110.695 105.312 109.738 104.11 108.563 103.532C107.387 102.957 106.123 102.942 104.766 103.496C104.031 103.794 103.439 104.156 102.991 104.579C102.544 105.002 102.22 105.461 102.022 105.958C101.823 106.456 101.741 106.983 101.775 107.537C101.809 108.091 101.939 108.649 102.167 109.215C102.394 109.779 102.682 110.257 103.03 110.646C103.378 111.037 103.83 111.345 104.389 111.571C104.945 111.797 105.625 111.945 106.425 112.018C107.225 112.091 108.19 112.11 109.317 112.076C111.14 112.025 112.83 112.047 114.38 112.142C115.93 112.236 117.338 112.504 118.598 112.938C119.857 113.373 120.965 114.029 121.918 114.901C122.87 115.772 123.644 116.948 124.241 118.427C124.783 119.768 125.037 121.067 125.003 122.323C124.969 123.581 124.684 124.771 124.15 125.893C123.615 127.017 122.841 128.059 121.833 129.021C120.825 129.982 119.611 130.832 118.196 131.568L120.036 136.117L116.141 137.705L114.31 133.178C112.898 133.594 111.469 133.832 110.018 133.89C108.567 133.948 107.177 133.749 105.849 133.288C104.522 132.826 103.298 132.061 102.181 130.99C101.064 129.919 100.135 128.469 99.3955 126.641L106.478 123.753C106.916 124.836 107.431 125.676 108.026 126.276C108.621 126.876 109.259 127.291 109.941 127.52C110.623 127.748 111.322 127.818 112.037 127.729C112.753 127.641 113.447 127.459 114.117 127.187C114.883 126.874 115.517 126.5 116.017 126.065C116.518 125.63 116.893 125.157 117.142 124.647C117.393 124.137 117.519 123.602 117.519 123.041C117.526 122.483 117.413 121.922 117.185 121.358Z" fill="#FFA412"/>
<path d="M143.323 94.765C141.87 93.7328 138.572 91.4644 138.4 91.9696C138.277 92.3339 138.453 92.9508 138.848 93.5944C136.853 92.8463 134.826 92.3558 130.038 93.2786C129.078 93.4632 128.21 94.0121 127.683 94.8378C127.195 95.6004 127.013 96.5573 128.235 97.3199C130.679 98.8475 129.971 97.9319 133.368 100.154C136.766 102.376 140.925 102.945 143.408 101.385L146.743 100.827L147.156 95.3187C147.156 95.3163 145.256 95.088 143.323 94.765Z" fill="#FFB27D"/>
<path d="M230.709 48.5602C230.709 48.5602 222.847 57.9274 212.836 54.01C212.836 54.01 210.682 48.7787 210.653 44.9221C210.65 44.4461 210.643 43.987 210.636 43.5499C210.583 39.2075 210.438 36.7692 210.438 36.7692C210.438 36.7692 210.44 36.7692 210.447 36.7667C210.902 36.5749 225.751 30.4523 225.739 30.9623C225.483 42.7072 230.709 48.5602 230.709 48.5602Z" fill="#FFB27D"/>
<path d="M224.247 33.7625C222.816 36.4291 217.902 41.6434 210.636 43.5474C210.583 39.205 210.438 36.7667 210.438 36.7667C210.438 36.7667 210.44 36.7667 210.447 36.7643C210.856 36.655 224.673 32.9756 224.247 33.7625Z" fill="#ED975D"/>
<path d="M207.325 36.3173C207.325 36.3173 224.025 40.2614 226.31 29.777C228.595 19.2951 232.288 12.745 221.723 9.78453C211.158 6.82403 208.208 10.3674 206.598 13.6801C204.987 16.9903 203.041 35.0204 207.325 36.3173Z" fill="#FFB27D"/>
<path d="M225.737 32.6332C225.964 32.7789 229.557 33.8888 236.362 20.2739C237.431 18.1367 238.159 13.5126 235.668 9.42767C233.177 5.34271 224.349 2.12963 217.012 0.733168C209.676 -0.665724 207.915 3.47995 206.189 7.64748C204.375 12.0214 199.138 15.6207 199.138 15.6207C205.463 19.1689 213.083 14.0931 215.721 14.9285C218.362 15.764 219.293 19.9412 219.491 21.2794C219.689 22.6176 219.994 23.7323 223.311 22.535C226.632 21.3401 224.813 27.2587 224.281 28.3904C224.286 28.3928 223.834 31.4092 225.737 32.6332Z" fill="#091823"/>
<path d="M268.755 294.041H278.867C280.988 294.041 283.343 291.909 283.931 288.006C284.521 284.101 288.878 281.971 289.821 278.777C290.764 275.581 285.933 271.086 285.933 271.086L285.125 270.044L284.286 268.958L276.278 270.85C276.278 270.85 276.079 272.767 275.956 275.205C275.871 276.966 275.823 279.003 275.925 280.788C276.159 285.048 274.737 289.636 270.97 290.464C267.195 291.295 268.755 294.041 268.755 294.041Z" fill="#232323"/>
<path d="M198.365 294.041H225.167C225.423 293.99 225.619 293.934 225.735 293.876C227.525 292.975 226.964 286.095 226.748 283.97C226.707 283.576 226.678 283.346 226.678 283.346C226.678 283.346 217.253 275.776 215.956 281.573C215.915 281.752 215.867 281.932 215.819 282.107V282.109C214.182 287.533 206.869 289.998 202.645 290.685C199.417 291.209 198.58 293.097 198.365 294.041Z" fill="#232323"/>
<path d="M203.768 138.806C203.768 138.806 205.199 156.741 206.882 178.302C209.17 207.589 211.919 243.565 212.19 250.382C212.661 262.216 214.547 281.145 214.547 281.145C214.547 281.145 219.021 285.643 227.978 283.746C227.978 283.746 235.957 256.723 238.238 228.131C238.274 227.662 238.308 227.191 238.344 226.717C240.465 197.61 243.763 136.319 243.763 136.319L203.768 138.806Z" fill="#4D4D4D"/>
<path d="M203.768 138.806C203.768 138.806 205.199 156.741 206.882 178.302L238.238 228.133C238.274 227.664 238.308 227.193 238.344 226.72C240.465 197.613 243.763 136.321 243.763 136.321L203.768 138.806Z" fill="#4D4D4D"/>
<path d="M210.303 140.935C210.303 140.935 236.102 205.894 253.067 236.42C270.033 266.945 275.333 275.465 275.333 275.465C275.333 275.465 285.052 271.559 285.937 268.898C285.937 268.898 279.449 209.964 268.089 195.599C261.669 187.48 254.129 163.121 253.776 154.601C253.423 146.082 251.479 129.222 251.479 129.222L210.303 140.935Z" fill="#686868"/>
<path d="M269.139 129.132L269.413 133.31C269.413 133.31 266.67 140.732 274.355 144.537C274.355 144.537 277.646 145.87 277.779 143.299C277.912 140.727 277.491 141.693 277.76 138.072C278.028 134.449 276.609 131.027 274.222 129.873L272.264 127.605L269.139 129.132Z" fill="#BE6700"/>
<path d="M272.14 132.173C269.284 133.093 268.827 132.885 268.827 132.885C268.827 132.885 254.928 107.469 253.521 105.142C252.113 102.816 224.01 76.6424 224.01 76.6424L231.233 49.5947C231.233 49.5947 263.196 91.1656 266.649 97.1303C272.353 106.988 275.695 129.88 275.695 129.88C275.695 129.88 274.384 131.452 272.14 132.173Z" fill="#BE6700"/>
<path d="M198.318 87.2653C198.418 92.8195 198.739 99.0636 199.175 105.407C199.201 105.784 199.228 106.16 199.254 106.536C199.532 110.466 199.832 114.403 200.178 118.242C200.316 119.782 200.463 121.305 200.618 122.799L200.642 123C200.654 123.559 200.722 124.166 200.783 124.72C202.192 139.104 203.667 150.468 203.943 150.643C204.269 150.861 204.639 150.971 205.043 150.925C208.799 150.451 220.004 151.306 229.178 149.302C236.919 147.663 243.585 144.552 250.649 140.36C251.587 139.804 253.724 138.33 253.55 137.227C253.379 136.015 253.064 134.267 252.663 132.066C251.273 124.416 248.869 111.255 248.049 95.8529C247.89 92.9847 247.657 90.1505 247.355 87.3648C246.567 80.1081 245.307 73.2156 243.614 67.0931C240.468 55.7174 235.847 47.0059 230.049 43.5985C229.292 43.1711 225.215 45.777 221.469 48.191C218.012 50.4181 214.37 51.0325 210.83 50.7217L207.713 54.1825C203.941 58.588 199.922 64.4531 198.824 72.7906C198.742 73.4075 198.672 74.0608 198.611 74.7554C198.306 78.1506 198.234 82.4493 198.318 87.2653Z" fill="#FF8F0C"/>
<path d="M198.318 87.2652C198.418 92.8195 198.739 99.0635 199.175 105.407C199.201 105.784 199.228 106.16 199.254 106.536C220.708 93.0502 224.011 68.3705 224.011 68.3705C213.456 68.8344 205.072 71.2727 198.611 74.7578C198.306 78.1506 198.234 82.4493 198.318 87.2652Z" fill="#BE6700"/>
<path d="M144.116 97.888C143.896 94.6919 145.543 94.1601 145.543 94.1601C145.543 94.1601 177.888 88.2731 180.637 87.4036C183.386 86.5342 206.898 61.971 206.898 61.971C206.898 61.971 215.91 51.7635 223.29 54.0172C229.703 55.9771 232.208 60.9995 233.061 65.7864C234.079 71.4888 231.461 77.2276 226.542 80.2562C215.504 87.0563 193.405 100.453 188.201 101.985C176.618 105.395 145.495 102.26 145.495 102.26C145.495 102.26 144.291 100.397 144.116 97.888Z" fill="#FF8F0C"/>
</svg>
