<svg width="295" height="309" viewBox="0 0 295 309" fill="none" xmlns="http://www.w3.org/2000/svg">
<path d="M60.8596 138.493C113.219 117.496 139.503 60.5345 223.166 117.44C298.979 169.008 292.504 279.987 259.626 309.462C174.312 309.462 34.6699 309.376 34.6699 309.376C7.4079 298.506 -38.0277 178.147 60.8596 138.493Z" fill="#DEDEDE"/>
<path d="M231.099 305.08V312.226C231.094 312.788 230.897 313.332 230.54 313.764C230.14 314.249 229.61 314.607 229.012 314.794C228.818 314.859 228.619 314.906 228.416 314.936C228.227 314.966 228.035 314.98 227.843 314.98H93.327C92.5588 315.034 91.7985 314.796 91.1965 314.312C90.5946 313.828 90.1948 313.134 90.0763 312.367C90.0763 312.32 90.0763 312.273 90.0763 312.226V305.08C90.0763 305.033 90.0763 304.986 90.0763 304.938C90.1946 304.171 90.5943 303.477 91.1963 302.993C91.7984 302.509 92.5587 302.271 93.327 302.325H227.844C228.036 302.325 228.228 302.34 228.417 302.369C228.62 302.399 228.819 302.446 229.013 302.511C229.611 302.698 230.141 303.056 230.541 303.542C230.898 303.974 231.095 304.517 231.1 305.079" fill="#FFB93E"/>
<path d="M165.044 314.98H92.9796C92.2567 314.998 91.5542 314.738 91.0148 314.253C90.4755 313.767 90.1399 313.093 90.0763 312.367C90.0763 312.32 90.0763 312.273 90.0763 312.226V305.08C90.0763 305.033 90.0763 304.985 90.0763 304.938C90.1399 304.212 90.4755 303.539 91.0148 303.054C91.5542 302.568 92.2567 302.308 92.9796 302.326H156.198C157.545 307.478 160.686 311.97 165.048 314.98" fill="#FFA412"/>
<path d="M214.73 302.327H213.201V314.98H214.73V302.327Z" fill="#FFA412"/>
<path d="M209.555 302.327H208.027V314.98H209.555V302.327Z" fill="#FFA412"/>
<path d="M203.349 302.327H201.82V314.98H203.349V302.327Z" fill="#FFA412"/>
<path d="M193.836 302.327H192.308V314.98H193.836V302.327Z" fill="#FFA412"/>
<path d="M183.778 302.327H182.249V314.98H183.778V302.327Z" fill="#FFA412"/>
<path d="M168.357 302.327H166.829V314.98H168.357V302.327Z" fill="#FFA412"/>
<path d="M153.919 302.327H152.39V314.98H153.919V302.327Z" fill="#FFA412"/>
<path d="M141.026 302.327H139.498V314.98H141.026V302.327Z" fill="#FFA412"/>
<path d="M219.656 302.327H218.127V314.98H219.656V302.327Z" fill="#FFA412"/>
<path d="M222.911 302.327H221.382V314.98H222.911V302.327Z" fill="#FFA412"/>
<path d="M226.053 302.327H224.524V314.98H226.053V302.327Z" fill="#FFA412"/>
<path d="M228.417 302.369L228.418 314.936C228.228 314.965 228.036 314.98 227.844 314.98H226.889V302.326L227.844 302.325C228.036 302.325 228.228 302.34 228.417 302.369Z" fill="#FFA412"/>
<path d="M230.541 303.539V313.759C230.141 314.244 229.611 314.602 229.013 314.79V302.512C229.611 302.7 230.141 303.057 230.541 303.542" fill="#FFA412"/>
<path d="M216.717 292.423V299.569C216.713 300.131 216.516 300.674 216.159 301.107C215.76 301.592 215.229 301.95 214.632 302.138C214.437 302.202 214.238 302.249 214.036 302.279C213.846 302.308 213.654 302.323 213.462 302.323H78.9473C78.1791 302.377 77.4187 302.139 76.8167 301.655C76.2147 301.171 75.8149 300.477 75.6966 299.71C75.6966 299.663 75.6966 299.616 75.6966 299.569V292.423C75.6966 292.376 75.6966 292.328 75.6966 292.281C75.8152 291.514 76.215 290.821 76.817 290.337C77.419 289.853 78.1793 289.615 78.9473 289.669H213.462C213.548 289.669 213.635 289.669 213.719 289.678C213.756 289.678 213.794 289.678 213.83 289.687C213.866 289.696 213.91 289.695 213.95 289.7C213.99 289.705 214.007 289.708 214.036 289.713C214.238 289.742 214.437 289.789 214.632 289.854C214.661 289.863 214.688 289.872 214.717 289.883C214.746 289.894 214.773 289.902 214.8 289.913L214.963 289.98L215.057 290.023C215.085 290.037 215.113 290.049 215.14 290.065C215.192 290.091 215.24 290.118 215.293 290.146C215.346 290.175 215.406 290.215 215.46 290.247C215.514 290.279 215.546 290.304 215.587 290.334C215.589 290.335 215.592 290.338 215.594 290.34C215.621 290.359 215.65 290.38 215.677 290.402C215.759 290.465 215.838 290.533 215.913 290.604C215.936 290.625 215.958 290.647 215.978 290.668C215.998 290.689 216.019 290.712 216.041 290.735C216.083 290.782 216.124 290.828 216.161 290.876C216.518 291.308 216.715 291.851 216.719 292.413" fill="#FFB93E"/>
<path d="M150.665 302.326H78.598C77.875 302.344 77.1724 302.084 76.633 301.599C76.0937 301.113 75.7581 300.439 75.6947 299.713C75.6947 299.666 75.6947 299.619 75.6947 299.572V292.423C75.6947 292.375 75.6947 292.328 75.6947 292.282C75.7581 291.556 76.0937 290.881 76.633 290.396C77.1724 289.911 77.875 289.651 78.598 289.669H141.811C141.839 289.77 141.868 289.876 141.899 289.981C143.286 295.006 146.39 299.377 150.663 302.322" fill="#FFA412"/>
<path d="M200.348 289.673H198.819V302.326H200.348V289.673Z" fill="#FFA412"/>
<path d="M195.173 289.673H193.644V302.326H195.173V289.673Z" fill="#FFA412"/>
<path d="M188.967 289.673H187.438V302.326H188.967V289.673Z" fill="#FFA412"/>
<path d="M179.455 289.673H177.926V302.326H179.455V289.673Z" fill="#FFA412"/>
<path d="M169.396 289.673H167.867V302.326H169.396V289.673Z" fill="#FFA412"/>
<path d="M153.975 289.673H152.446V302.326H153.975V289.673Z" fill="#FFA412"/>
<path d="M139.536 289.673H138.008V302.326H139.536V289.673Z" fill="#FFA412"/>
<path d="M126.644 289.673H125.115V302.326H126.644V289.673Z" fill="#FFA412"/>
<path d="M205.274 289.673H203.745V302.326H205.274V289.673Z" fill="#FFA412"/>
<path d="M208.528 289.673H206.999V302.326H208.528V289.673Z" fill="#FFA412"/>
<path d="M211.671 289.673H210.142V302.326H211.671V289.673Z" fill="#FFA412"/>
<path d="M214.035 289.715V302.281C213.845 302.31 213.654 302.325 213.461 302.325H212.506V289.672H213.461C213.653 289.672 213.845 289.686 214.035 289.715Z" fill="#FFA412"/>
<path d="M216.159 290.889V301.109C215.759 301.593 215.229 301.951 214.633 302.138V289.858C215.23 290.045 215.761 290.403 216.161 290.889" fill="#FFA412"/>
<path d="M223.666 280.085V287.231C223.662 287.793 223.465 288.336 223.109 288.768C222.709 289.253 222.178 289.611 221.581 289.799C221.387 289.864 221.187 289.911 220.985 289.94C220.795 289.97 220.604 289.985 220.411 289.985H85.8966C85.38 289.987 84.8687 289.88 84.3949 289.673C83.9417 289.494 83.5426 289.2 83.2374 288.818C82.9322 288.436 82.7314 287.98 82.6549 287.496C82.6499 287.456 82.6459 287.414 82.6439 287.373C82.6419 287.332 82.6439 287.278 82.6439 287.232V280.086C82.6439 280.038 82.6439 279.991 82.6439 279.943C82.7622 279.177 83.162 278.483 83.764 277.999C84.366 277.515 85.1264 277.276 85.8946 277.331H220.409C220.602 277.331 220.793 277.345 220.983 277.375C221.185 277.404 221.385 277.452 221.579 277.516C222.178 277.703 222.711 278.061 223.113 278.547C223.469 278.979 223.666 279.523 223.67 280.085" fill="#FFB93E"/>
<path d="M157.612 289.985H85.5482C85.0841 289.986 84.626 289.879 84.2096 289.673C83.7889 289.472 83.4256 289.167 83.154 288.787C82.8824 288.406 82.7113 287.962 82.6569 287.496C82.6519 287.455 82.6479 287.413 82.6459 287.373C82.6439 287.332 82.6459 287.278 82.6459 287.232V280.085C82.6459 280.038 82.6459 279.991 82.6459 279.944C82.7098 279.219 83.0455 278.545 83.5848 278.06C84.124 277.575 84.8264 277.315 85.5491 277.333H148.764C150.065 282.303 153.037 286.665 157.174 289.674C157.32 289.775 157.467 289.883 157.616 289.986" fill="#FFA412"/>
<path d="M207.299 277.332H205.77V289.985H207.299V277.332Z" fill="#FFA412"/>
<path d="M202.123 277.332H200.594V289.985H202.123V277.332Z" fill="#FFA412"/>
<path d="M195.917 277.332H194.388V289.985H195.917V277.332Z" fill="#FFA412"/>
<path d="M186.405 277.332H184.876V289.985H186.405V277.332Z" fill="#FFA412"/>
<path d="M176.346 277.332H174.817V289.985H176.346V277.332Z" fill="#FFA412"/>
<path d="M160.926 277.332H159.397V289.985H160.926V277.332Z" fill="#FFA412"/>
<path d="M146.487 277.332H144.958V289.985H146.487V277.332Z" fill="#FFA412"/>
<path d="M133.594 277.332H132.065V289.985H133.594V277.332Z" fill="#FFA412"/>
<path d="M212.224 277.332H210.696V289.985H212.224V277.332Z" fill="#FFA412"/>
<path d="M215.479 277.332H213.95V289.985H215.479V277.332Z" fill="#FFA412"/>
<path d="M218.621 277.332H217.093V289.985H218.621V277.332Z" fill="#FFA412"/>
<path d="M220.985 277.375L220.985 289.94C220.795 289.97 220.604 289.985 220.411 289.985L219.457 289.985V277.331H220.412C220.604 277.331 220.796 277.345 220.985 277.375Z" fill="#FFA412"/>
<path d="M223.107 278.547V288.768C222.707 289.253 222.177 289.611 221.579 289.799L221.579 277.516C222.176 277.704 222.707 278.062 223.107 278.547Z" fill="#FFA412"/>
<path d="M226.889 267.432V274.578C226.885 275.14 226.688 275.683 226.331 276.115C225.931 276.6 225.401 276.958 224.803 277.145C224.61 277.21 224.411 277.258 224.209 277.287C224.018 277.317 223.826 277.332 223.634 277.332H89.119C88.3509 277.386 87.5906 277.147 86.9886 276.663C86.3867 276.18 85.9869 275.486 85.8684 274.719C85.8684 274.672 85.8684 274.624 85.8684 274.578V267.432C85.8684 267.384 85.8684 267.338 85.8684 267.29C85.9688 266.588 86.3109 265.944 86.8347 265.47C87.3586 264.996 88.0311 264.723 88.7346 264.698C88.8626 264.684 88.9913 264.678 89.12 264.678H223.634C223.826 264.678 224.018 264.692 224.209 264.722C224.41 264.752 224.609 264.799 224.803 264.863C225.401 265.051 225.931 265.409 226.331 265.894C226.688 266.326 226.885 266.87 226.889 267.432Z" fill="#FFB93E"/>
<path d="M160.835 277.331H88.7697C88.047 277.349 87.3446 277.089 86.8053 276.604C86.266 276.118 85.9303 275.445 85.8664 274.719C85.8664 274.672 85.8664 274.624 85.8664 274.578V267.432C85.8664 267.384 85.8664 267.338 85.8664 267.29C85.9221 266.624 86.2091 265.999 86.6769 265.525C87.1447 265.051 87.7634 264.758 88.4243 264.698C88.5383 264.685 88.6529 264.678 88.7677 264.679H151.983C151.983 264.685 151.983 264.692 151.988 264.698C153.337 269.842 156.476 274.325 160.833 277.332" fill="#FFA412"/>
<path d="M210.52 264.678H208.992V277.331H210.52V264.678Z" fill="#FFA412"/>
<path d="M205.346 264.678H203.817V277.331H205.346V264.678Z" fill="#FFA412"/>
<path d="M199.139 264.678H197.611V277.331H199.139V264.678Z" fill="#FFA412"/>
<path d="M189.628 264.678H188.099V277.331H189.628V264.678Z" fill="#FFA412"/>
<path d="M179.568 264.678H178.04V277.331H179.568V264.678Z" fill="#FFA412"/>
<path d="M164.147 264.678H162.619V277.331H164.147V264.678Z" fill="#FFA412"/>
<path d="M149.709 264.678H148.18V277.331H149.709V264.678Z" fill="#FFA412"/>
<path d="M136.817 264.678H135.288V277.331H136.817V264.678Z" fill="#FFA412"/>
<path d="M215.446 264.678H213.917V277.331H215.446V264.678Z" fill="#FFA412"/>
<path d="M218.701 264.678H217.172V277.331H218.701V264.678Z" fill="#FFA412"/>
<path d="M221.843 264.678H220.314V277.331H221.843V264.678Z" fill="#FFA412"/>
<path d="M224.208 264.721V277.286C224.018 277.316 223.826 277.331 223.634 277.331H222.678V264.677H223.634C223.826 264.677 224.018 264.691 224.208 264.721Z" fill="#FFA412"/>
<path d="M226.331 265.896V276.117C225.932 276.602 225.401 276.96 224.804 277.148V264.862C225.401 265.05 225.932 265.408 226.331 265.893" fill="#FFA412"/>
<path d="M216.998 254.798V261.944C216.994 262.506 216.797 263.049 216.441 263.481C216.041 263.966 215.511 264.324 214.914 264.512C214.72 264.577 214.521 264.624 214.318 264.654C214.255 264.663 214.192 264.672 214.129 264.678L214.023 264.687L213.917 264.693C213.859 264.693 213.802 264.693 213.745 264.693H79.2289C78.4607 264.747 77.7003 264.509 77.0983 264.025C76.4963 263.541 76.0965 262.847 75.9782 262.08C75.9782 262.033 75.9782 261.985 75.9782 261.939V254.793C75.9782 254.745 75.9782 254.698 75.9782 254.651C75.9782 254.603 75.9832 254.573 75.9872 254.535C76.0949 253.927 76.3877 253.368 76.825 252.936C77.2622 252.504 77.8221 252.22 78.427 252.124L78.5271 252.103C78.7583 252.06 78.9928 252.038 79.2279 252.038H213.744C213.844 252.038 213.944 252.038 214.035 252.049L214.165 252.061L214.316 252.082C214.519 252.112 214.718 252.159 214.912 252.223C215.509 252.411 216.039 252.769 216.439 253.254C216.795 253.687 216.992 254.23 216.996 254.792" fill="#FFB93E"/>
<path d="M150.945 264.697H78.8805C78.1577 264.715 77.4551 264.455 76.9158 263.969C76.3765 263.484 76.0409 262.81 75.9772 262.084C75.9772 262.037 75.9772 261.989 75.9772 261.943V254.797C75.9772 254.749 75.9772 254.702 75.9772 254.656C75.9772 254.609 75.9822 254.578 75.9862 254.54C76.0589 253.947 76.3162 253.392 76.7213 252.956C77.1265 252.52 77.6584 252.224 78.2408 252.112C78.2817 252.101 78.3232 252.093 78.3649 252.087C78.5349 252.058 78.7071 252.044 78.8795 252.044H142.094C142.101 252.074 142.11 252.103 142.119 252.134C143.475 257.237 146.594 261.686 150.915 264.678L150.944 264.697" fill="#FFA412"/>
<path d="M200.631 252.044H199.102V264.697H200.631V252.044Z" fill="#FFA412"/>
<path d="M195.455 252.044H193.927V264.697H195.455V252.044Z" fill="#FFA412"/>
<path d="M189.25 252.044H187.721V264.697H189.25V252.044Z" fill="#FFA412"/>
<path d="M179.737 252.044H178.209V264.697H179.737V252.044Z" fill="#FFA412"/>
<path d="M169.679 252.044H168.15V264.697H169.679V252.044Z" fill="#FFA412"/>
<path d="M154.258 252.044H152.729V264.697H154.258V252.044Z" fill="#FFA412"/>
<path d="M139.819 252.044H138.29V264.697H139.819V252.044Z" fill="#FFA412"/>
<path d="M126.927 252.044H125.399V264.697H126.927V252.044Z" fill="#FFA412"/>
<path d="M205.557 252.044H204.028V264.697H205.557V252.044Z" fill="#FFA412"/>
<path d="M208.811 252.044H207.283V264.697H208.811V252.044Z" fill="#FFA412"/>
<path d="M211.954 252.044H210.425V264.697H211.954V252.044Z" fill="#FFA412"/>
<path d="M214.318 252.087V264.652C214.128 264.681 213.936 264.696 213.744 264.696H212.789V252.044H213.744C213.936 252.044 214.128 252.058 214.318 252.087Z" fill="#FFA412"/>
<path d="M216.441 253.26L216.441 263.481C216.041 263.966 215.511 264.324 214.914 264.512L214.913 252.229C215.511 252.417 216.041 252.775 216.441 253.26Z" fill="#FFA412"/>
<path d="M216.717 242.233V249.38C216.713 249.942 216.516 250.485 216.159 250.917C215.76 251.402 215.229 251.76 214.632 251.948C214.48 251.999 214.325 252.038 214.168 252.067C214.125 252.076 214.084 252.084 214.04 252.089C213.85 252.119 213.658 252.134 213.466 252.134H78.9474C78.8065 252.134 78.6658 252.126 78.5259 252.109C78.4718 252.109 78.4178 252.097 78.3657 252.088C77.6979 252.029 77.07 251.742 76.5849 251.276C76.0998 250.81 75.7863 250.191 75.6957 249.522C75.6957 249.474 75.6957 249.428 75.6957 249.381V242.234C75.6957 242.187 75.6957 242.14 75.6957 242.092C75.814 241.325 76.2137 240.632 76.8157 240.148C77.4178 239.664 78.1782 239.425 78.9464 239.48H213.462C213.548 239.48 213.635 239.479 213.719 239.489L213.83 239.498C213.869 239.498 213.91 239.506 213.95 239.511C213.99 239.516 214.007 239.519 214.036 239.523C214.238 239.552 214.437 239.6 214.632 239.664C214.661 239.673 214.688 239.682 214.717 239.693C214.746 239.704 214.773 239.713 214.8 239.724C214.855 239.745 214.909 239.767 214.963 239.79C215.017 239.813 215.081 239.845 215.139 239.875C215.197 239.905 215.239 239.928 215.292 239.957C215.345 239.985 215.405 240.025 215.459 240.058C215.514 240.09 215.545 240.114 215.586 240.144C215.588 240.146 215.591 240.149 215.593 240.151C215.62 240.171 215.649 240.192 215.676 240.213C215.758 240.276 215.837 240.343 215.912 240.415C215.935 240.436 215.957 240.457 215.977 240.478L216.04 240.546C216.082 240.591 216.123 240.639 216.16 240.686C216.517 241.118 216.714 241.661 216.718 242.223" fill="#FFB93E"/>
<path d="M150.665 252.133H78.598C78.5409 252.133 78.4828 252.133 78.4268 252.133C78.3707 252.133 78.3026 252.124 78.2416 252.116C77.5828 252.055 76.9666 251.761 76.5011 251.287C76.0356 250.814 75.7504 250.19 75.6957 249.526C75.6957 249.478 75.6957 249.431 75.6957 249.385V242.234C75.6957 242.187 75.6957 242.14 75.6957 242.092C75.7593 241.367 76.095 240.693 76.6343 240.208C77.1737 239.723 77.8762 239.463 78.599 239.481H141.812C141.84 239.582 141.869 239.683 141.9 239.793C143.273 244.766 146.327 249.099 150.534 252.045L150.663 252.134" fill="#FFA412"/>
<path d="M200.348 239.481H198.819V252.134H200.348V239.481Z" fill="#FFA412"/>
<path d="M195.173 239.481H193.644V252.134H195.173V239.481Z" fill="#FFA412"/>
<path d="M188.967 239.481H187.438V252.134H188.967V239.481Z" fill="#FFA412"/>
<path d="M179.455 239.481H177.926V252.134H179.455V239.481Z" fill="#FFA412"/>
<path d="M169.396 239.481H167.867V252.134H169.396V239.481Z" fill="#FFA412"/>
<path d="M153.975 239.481H152.446V252.134H153.975V239.481Z" fill="#FFA412"/>
<path d="M139.536 239.481H138.008V252.134H139.536V239.481Z" fill="#FFA412"/>
<path d="M126.644 239.481H125.115V252.134H126.644V239.481Z" fill="#FFA412"/>
<path d="M205.274 239.481H203.745V252.134H205.274V239.481Z" fill="#FFA412"/>
<path d="M208.528 239.481H206.999V252.134H208.528V239.481Z" fill="#FFA412"/>
<path d="M211.671 239.481H210.142V252.134H211.671V239.481Z" fill="#FFA412"/>
<path d="M214.035 239.525V252.089C213.845 252.119 213.654 252.134 213.461 252.134H212.506V239.481H213.461C213.654 239.481 213.845 239.496 214.035 239.525Z" fill="#FFA412"/>
<path d="M216.159 240.697V250.918C215.759 251.403 215.229 251.76 214.633 251.948V239.666C215.23 239.854 215.761 240.212 216.161 240.697" fill="#FFA412"/>
<path d="M223.666 229.893V237.04C223.662 237.602 223.465 238.146 223.109 238.578C222.709 239.063 222.178 239.421 221.581 239.609C221.387 239.673 221.187 239.721 220.985 239.75C220.795 239.779 220.604 239.794 220.411 239.794H85.8966C85.38 239.796 84.8686 239.69 84.3949 239.483C83.9417 239.304 83.5427 239.009 83.2375 238.627C82.9323 238.245 82.7315 237.79 82.6549 237.306C82.6499 237.265 82.6459 237.224 82.6439 237.183C82.6419 237.141 82.6439 237.088 82.6439 237.041V229.895C82.6439 229.848 82.6439 229.8 82.6439 229.753C82.7624 228.986 83.1623 228.293 83.7643 227.809C84.3663 227.325 85.1265 227.087 85.8946 227.141H220.409C220.602 227.141 220.793 227.156 220.983 227.186C221.185 227.215 221.385 227.262 221.579 227.327C222.178 227.513 222.711 227.87 223.113 228.356C223.469 228.788 223.666 229.331 223.67 229.893" fill="#FFB93E"/>
<path d="M157.612 239.792H85.5482C85.0841 239.794 84.626 239.687 84.2096 239.481C83.7889 239.28 83.4256 238.975 83.154 238.594C82.8824 238.214 82.7113 237.769 82.6569 237.304C82.6519 237.262 82.6479 237.221 82.6459 237.181C82.6439 237.14 82.6459 237.086 82.6459 237.039V229.893C82.6459 229.846 82.6459 229.798 82.6459 229.752C82.7098 229.026 83.0455 228.353 83.5848 227.867C84.124 227.382 84.8264 227.122 85.5491 227.14H148.764C150.065 232.111 153.037 236.472 157.174 239.482C157.319 239.586 157.467 239.69 157.616 239.793" fill="#FFA412"/>
<path d="M207.299 227.139H205.77V239.792H207.299V227.139Z" fill="#FFA412"/>
<path d="M202.123 227.139H200.594V239.792H202.123V227.139Z" fill="#FFA412"/>
<path d="M195.917 227.139H194.388V239.792H195.917V227.139Z" fill="#FFA412"/>
<path d="M186.405 227.139H184.876V239.792H186.405V227.139Z" fill="#FFA412"/>
<path d="M176.346 227.139H174.817V239.792H176.346V227.139Z" fill="#FFA412"/>
<path d="M160.926 227.139H159.397V239.792H160.926V227.139Z" fill="#FFA412"/>
<path d="M146.487 227.139H144.958V239.792H146.487V227.139Z" fill="#FFA412"/>
<path d="M133.594 227.139H132.065V239.792H133.594V227.139Z" fill="#FFA412"/>
<path d="M212.224 227.139H210.696V239.792H212.224V227.139Z" fill="#FFA412"/>
<path d="M215.479 227.139H213.95V239.792H215.479V227.139Z" fill="#FFA412"/>
<path d="M218.621 227.139H217.093V239.792H218.621V227.139Z" fill="#FFA412"/>
<path d="M220.985 227.184L220.985 239.75C220.795 239.779 220.604 239.794 220.411 239.794L219.457 239.793V227.139H220.412C220.604 227.14 220.796 227.154 220.985 227.184Z" fill="#FFA412"/>
<path d="M223.107 228.355V238.576C222.707 239.061 222.176 239.419 221.579 239.607V227.324C222.176 227.512 222.707 227.87 223.107 228.355Z" fill="#FFA412"/>
<path d="M234.659 217.239V224.385C234.655 224.947 234.458 225.49 234.102 225.923C233.702 226.407 233.171 226.765 232.574 226.953C232.38 227.018 232.18 227.065 231.978 227.095C231.788 227.124 231.596 227.139 231.403 227.139H96.8896C96.1215 227.193 95.3612 226.955 94.7592 226.471C94.1572 225.987 93.7574 225.293 93.6389 224.526C93.6389 224.479 93.6389 224.432 93.6389 224.385V217.239C93.6389 217.193 93.6389 217.145 93.6389 217.098C93.7394 216.396 94.0814 215.752 94.6053 215.278C95.1292 214.804 95.8016 214.53 96.5052 214.505C96.6332 214.492 96.7619 214.485 96.8906 214.485H231.404C231.597 214.485 231.789 214.5 231.979 214.53C232.181 214.559 232.381 214.606 232.575 214.671C233.17 214.86 233.698 215.218 234.097 215.702C234.453 216.134 234.65 216.677 234.654 217.239" fill="#FFB93E"/>
<path d="M168.605 227.138H96.5393C95.8166 227.156 95.1142 226.896 94.5749 226.411C94.0356 225.926 93.6999 225.252 93.636 224.527C93.636 224.479 93.636 224.432 93.636 224.385V217.239C93.636 217.193 93.636 217.146 93.636 217.098C93.6917 216.432 93.9787 215.807 94.4465 215.333C94.9143 214.858 95.533 214.566 96.1939 214.506C96.3079 214.492 96.4225 214.486 96.5373 214.486H159.752C159.752 214.492 159.752 214.499 159.758 214.506C161.107 219.649 164.246 224.133 168.602 227.139" fill="#FFA412"/>
<path d="M218.291 214.486H216.762V227.139H218.291V214.486Z" fill="#FFA412"/>
<path d="M213.116 214.486H211.587V227.139H213.116V214.486Z" fill="#FFA412"/>
<path d="M206.91 214.486H205.381V227.139H206.91V214.486Z" fill="#FFA412"/>
<path d="M197.397 214.486H195.868V227.139H197.397V214.486Z" fill="#FFA412"/>
<path d="M187.339 214.486H185.81V227.139H187.339V214.486Z" fill="#FFA412"/>
<path d="M171.919 214.486H170.39V227.139H171.919V214.486Z" fill="#FFA412"/>
<path d="M157.48 214.486H155.951V227.139H157.48V214.486Z" fill="#FFA412"/>
<path d="M144.587 214.486H143.058V227.139H144.587V214.486Z" fill="#FFA412"/>
<path d="M223.216 214.486H221.688V227.139H223.216V214.486Z" fill="#FFA412"/>
<path d="M226.471 214.486H224.942V227.139H226.471V214.486Z" fill="#FFA412"/>
<path d="M229.614 214.486H228.086V227.139H229.614V214.486Z" fill="#FFA412"/>
<path d="M231.979 214.53L231.978 227.095C231.788 227.124 231.597 227.139 231.405 227.139H230.45V214.485L231.404 214.485C231.597 214.485 231.789 214.5 231.979 214.53Z" fill="#FFA412"/>
<path d="M234.102 215.699V225.92C233.702 226.404 233.171 226.762 232.574 226.95L232.575 214.671C233.172 214.858 233.702 215.215 234.102 215.699Z" fill="#FFA412"/>
<path d="M216.998 204.605V211.752C216.994 212.314 216.797 212.857 216.441 213.289C216.041 213.774 215.511 214.132 214.914 214.32C214.72 214.384 214.521 214.432 214.318 214.461C214.255 214.47 214.192 214.479 214.129 214.485C214.066 214.491 214.029 214.494 213.978 214.497H79.2289C78.4607 214.552 77.7003 214.313 77.0983 213.829C76.4963 213.346 76.0965 212.651 75.9782 211.885C75.9782 211.837 75.9782 211.791 75.9782 211.744V204.597C75.9782 204.55 75.9782 204.504 75.9782 204.455C76.0965 203.688 76.4963 202.994 77.0983 202.51C77.7003 202.027 78.4607 201.788 79.2289 201.842H213.744C213.801 201.842 213.859 201.842 213.916 201.842C214.05 201.849 214.184 201.862 214.316 201.882C214.519 201.911 214.718 201.958 214.912 202.023C215.012 202.055 215.104 202.09 215.194 202.13C215.252 202.154 215.308 202.178 215.362 202.207C215.368 202.208 215.374 202.211 215.38 202.216C215.436 202.243 215.49 202.272 215.543 202.302C215.552 202.307 215.561 202.312 215.57 202.318C215.62 202.345 215.67 202.376 215.716 202.407C215.83 202.479 215.938 202.559 216.039 202.646C216.072 202.672 216.102 202.7 216.131 202.727L216.147 202.742C216.168 202.759 216.185 202.776 216.204 202.794L216.215 202.805C216.248 202.837 216.28 202.87 216.315 202.906C216.35 202.941 216.403 203.007 216.444 203.055C216.8 203.487 216.997 204.03 217.001 204.592" fill="#FFB93E"/>
<path d="M150.945 214.505H78.8805C78.1577 214.523 77.4551 214.262 76.9158 213.777C76.3765 213.292 76.0409 212.618 75.9772 211.892C75.9772 211.844 75.9772 211.797 75.9772 211.751V204.604C75.9772 204.557 75.9772 204.51 75.9772 204.463C76.0409 203.737 76.3765 203.063 76.9158 202.578C77.4551 202.093 78.1577 201.833 78.8805 201.851H142.095C142.12 201.951 142.147 202.043 142.178 202.142C143.559 207.164 146.653 211.534 150.916 214.483L150.945 214.504" fill="#FFA412"/>
<path d="M200.631 201.852H199.102V214.505H200.631V201.852Z" fill="#FFA412"/>
<path d="M195.455 201.852H193.927V214.505H195.455V201.852Z" fill="#FFA412"/>
<path d="M189.25 201.852H187.721V214.505H189.25V201.852Z" fill="#FFA412"/>
<path d="M179.737 201.852H178.209V214.505H179.737V201.852Z" fill="#FFA412"/>
<path d="M169.679 201.852H168.15V214.505H169.679V201.852Z" fill="#FFA412"/>
<path d="M154.258 201.852H152.729V214.505H154.258V201.852Z" fill="#FFA412"/>
<path d="M139.819 201.852H138.29V214.505H139.819V201.852Z" fill="#FFA412"/>
<path d="M126.927 201.852H125.399V214.505H126.927V201.852Z" fill="#FFA412"/>
<path d="M205.557 201.852H204.028V214.505H205.557V201.852Z" fill="#FFA412"/>
<path d="M208.811 201.852H207.283V214.505H208.811V201.852Z" fill="#FFA412"/>
<path d="M211.954 201.852H210.425V214.505H211.954V201.852Z" fill="#FFA412"/>
<path d="M214.318 201.896L214.318 214.461C214.129 214.491 213.936 214.505 213.744 214.505H212.789V201.851H213.744C213.936 201.851 214.128 201.866 214.318 201.896Z" fill="#FFA412"/>
<path d="M216.441 203.072V213.293C216.041 213.778 215.511 214.136 214.913 214.324V202.037C215.511 202.225 216.041 202.583 216.441 203.068" fill="#FFA412"/>
<path d="M226.889 192.245V199.391C226.885 199.953 226.688 200.496 226.332 200.928C225.932 201.413 225.401 201.771 224.804 201.958C224.61 202.023 224.411 202.071 224.209 202.1C224.019 202.13 223.827 202.145 223.635 202.145H89.1199C88.6208 202.147 88.1264 202.047 87.6663 201.852C87.2009 201.677 86.79 201.38 86.4758 200.992C86.1617 200.605 85.9554 200.14 85.8783 199.645C85.8783 199.609 85.8712 199.57 85.8692 199.533C85.8672 199.496 85.8692 199.438 85.8692 199.392V192.246C85.8692 192.198 85.8692 192.152 85.8692 192.104C85.9697 191.402 86.3117 190.758 86.8356 190.284C87.3595 189.81 88.032 189.537 88.7355 189.512C88.8635 189.498 88.9922 189.492 89.1209 189.492H223.635C223.827 189.492 224.019 189.506 224.209 189.536C224.411 189.566 224.61 189.613 224.804 189.677C225.402 189.865 225.932 190.223 226.332 190.708C226.688 191.14 226.886 191.684 226.889 192.246" fill="#FFB93E"/>
<path d="M160.835 202.144H88.7697C88.3196 202.146 87.8749 202.046 87.4682 201.851C87.0357 201.653 86.6614 201.346 86.3817 200.959C86.1021 200.573 85.9266 200.119 85.8724 199.644C85.8724 199.608 85.8654 199.569 85.8634 199.532C85.8614 199.495 85.8634 199.437 85.8634 199.391V192.245C85.8634 192.197 85.8634 192.151 85.8634 192.103C85.9191 191.437 86.2061 190.812 86.6739 190.338C87.1417 189.864 87.7604 189.571 88.4213 189.511C88.5353 189.498 88.6499 189.491 88.7647 189.492H151.98C151.98 189.498 151.98 189.505 151.985 189.511C153.291 194.485 156.271 198.847 160.415 201.852C160.55 201.953 160.688 202.054 160.829 202.145" fill="#FFA412"/>
<path d="M210.52 189.491H208.992V202.144H210.52V189.491Z" fill="#FFA412"/>
<path d="M205.346 189.491H203.817V202.144H205.346V189.491Z" fill="#FFA412"/>
<path d="M199.139 189.491H197.611V202.144H199.139V189.491Z" fill="#FFA412"/>
<path d="M189.628 189.491H188.099V202.144H189.628V189.491Z" fill="#FFA412"/>
<path d="M179.568 189.491H178.04V202.144H179.568V189.491Z" fill="#FFA412"/>
<path d="M164.147 189.491H162.619V202.144H164.147V189.491Z" fill="#FFA412"/>
<path d="M149.709 189.491H148.18V202.144H149.709V189.491Z" fill="#FFA412"/>
<path d="M136.817 189.491H135.288V202.144H136.817V189.491Z" fill="#FFA412"/>
<path d="M215.446 189.491H213.917V202.144H215.446V189.491Z" fill="#FFA412"/>
<path d="M218.701 189.491H217.172V202.144H218.701V189.491Z" fill="#FFA412"/>
<path d="M221.843 189.491H220.314V202.144H221.843V189.491Z" fill="#FFA412"/>
<path d="M224.208 189.533V202.099C224.018 202.128 223.826 202.143 223.634 202.143H222.678V189.49H223.634C223.826 189.49 224.018 189.504 224.208 189.533Z" fill="#FFA412"/>
<path d="M226.331 190.706L226.332 200.928C225.932 201.413 225.401 201.771 224.804 201.958L224.804 189.675C225.401 189.863 225.932 190.221 226.331 190.706Z" fill="#FFA412"/>
<path d="M231.099 179.609V186.755C231.094 187.317 230.897 187.861 230.54 188.293C230.14 188.777 229.609 189.135 229.012 189.323C228.818 189.388 228.619 189.435 228.416 189.465C228.353 189.474 228.29 189.483 228.227 189.489L228.121 189.498L228.015 189.504C227.958 189.504 227.9 189.504 227.843 189.504H93.327C92.5587 189.558 91.7984 189.32 91.1963 188.836C90.5943 188.352 90.1946 187.658 90.0763 186.891C90.0763 186.844 90.0763 186.798 90.0763 186.75V179.609C90.0763 179.562 90.0763 179.515 90.0763 179.468C90.1946 178.701 90.5943 178.007 91.1963 177.523C91.7984 177.039 92.5587 176.801 93.327 176.855H227.844C228.036 176.855 228.228 176.87 228.417 176.9C228.62 176.929 228.819 176.976 229.013 177.041C229.611 177.228 230.141 177.587 230.541 178.072C230.898 178.504 231.095 179.047 231.1 179.609" fill="#FFB93E"/>
<path d="M165.044 189.51H92.9796C92.2567 189.528 91.5542 189.268 91.0148 188.782C90.4755 188.297 90.1399 187.623 90.0763 186.897C90.0763 186.85 90.0763 186.802 90.0763 186.756V179.609C90.0763 179.562 90.0763 179.515 90.0763 179.468C90.1399 178.742 90.4755 178.068 91.0148 177.582C91.5542 177.097 92.2567 176.837 92.9796 176.855H156.198C157.541 181.995 160.672 186.479 165.019 189.489L165.048 189.509" fill="#FFA412"/>
<path d="M214.73 176.857H213.201V189.51H214.73V176.857Z" fill="#FFA412"/>
<path d="M209.555 176.857H208.027V189.51H209.555V176.857Z" fill="#FFA412"/>
<path d="M203.349 176.857H201.82V189.51H203.349V176.857Z" fill="#FFA412"/>
<path d="M193.837 176.857H192.309V189.51H193.837V176.857Z" fill="#FFA412"/>
<path d="M183.778 176.857H182.249V189.51H183.778V176.857Z" fill="#FFA412"/>
<path d="M168.357 176.857H166.829V189.51H168.357V176.857Z" fill="#FFA412"/>
<path d="M153.919 176.857H152.39V189.51H153.919V176.857Z" fill="#FFA412"/>
<path d="M141.026 176.857H139.498V189.51H141.026V176.857Z" fill="#FFA412"/>
<path d="M219.656 176.857H218.127V189.51H219.656V176.857Z" fill="#FFA412"/>
<path d="M222.911 176.857H221.382V189.51H222.911V176.857Z" fill="#FFA412"/>
<path d="M226.053 176.857H224.524V189.51H226.053V176.857Z" fill="#FFA412"/>
<path d="M228.417 176.9L228.418 189.466C228.228 189.495 228.036 189.51 227.844 189.51H226.889V176.856L227.844 176.855C228.036 176.855 228.228 176.87 228.417 176.9Z" fill="#FFA412"/>
<path d="M230.541 178.072L230.541 188.293C230.141 188.778 229.611 189.137 229.013 189.324L229.013 177.041C229.611 177.228 230.141 177.587 230.541 178.072Z" fill="#FFA412"/>
<path d="M18.3414 250.594C18.3414 237.854 22.0908 225.399 29.1155 214.806C36.1402 204.213 46.1246 195.956 57.8063 191.08C69.4879 186.205 82.342 184.929 94.7431 187.415C107.144 189.9 118.535 196.035 127.476 205.044C136.417 214.053 142.506 225.531 144.972 238.027C147.439 250.523 146.173 263.475 141.334 275.246C136.496 287.016 128.302 297.077 117.788 304.155C107.275 311.233 94.9152 315.011 82.2711 315.011C73.8757 315.011 65.5626 313.345 57.8063 310.108C50.0499 306.871 43.0024 302.126 37.066 296.144C25.0768 284.063 18.3414 267.679 18.3414 250.594Z" fill="#E2810E"/>
<path d="M12.7677 250.594C12.7677 237.854 16.5171 225.399 23.5418 214.806C30.5665 204.213 40.5509 195.956 52.2325 191.081C63.9142 186.205 76.7683 184.929 89.1694 187.415C101.571 189.9 112.962 196.035 121.902 205.044C130.843 214.053 136.932 225.531 139.399 238.027C141.865 250.523 140.599 263.475 135.761 275.246C130.922 287.016 122.728 297.077 112.215 304.155C101.702 311.233 89.3414 315.011 76.6974 315.011C59.7422 315.011 43.4814 308.225 31.4923 296.144C19.5031 284.063 12.7677 267.679 12.7677 250.594Z" fill="#FFB93E"/>
<path d="M76.6972 310.046C63.2216 310.046 50.163 305.338 39.7462 296.724C29.3295 288.11 22.1992 276.123 19.5702 262.806C16.9412 249.488 18.9763 235.664 25.3286 223.689C31.6808 211.714 41.9573 202.329 54.4071 197.133C66.8568 191.937 80.7095 191.251 93.6048 195.192C106.5 199.134 117.64 207.459 125.127 218.749C132.614 230.038 135.984 243.595 134.663 257.108C133.342 270.621 127.412 283.254 117.884 292.855C112.488 298.323 106.069 302.657 98.9994 305.608C91.9297 308.558 84.3493 310.067 76.6972 310.046ZM76.6972 196.166C65.8642 196.166 55.2746 199.403 46.2673 205.467C37.2601 211.531 30.2398 220.151 26.0942 230.235C21.9486 240.32 20.8639 251.417 22.9773 262.123C25.0907 272.828 30.3073 282.662 37.9673 290.381C45.6274 298.099 55.3868 303.356 66.0116 305.485C76.6364 307.615 87.6493 306.522 97.6576 302.344C107.666 298.167 116.22 291.093 122.239 282.018C128.257 272.942 131.469 262.271 131.469 251.356C131.453 236.723 125.677 222.695 115.409 212.349C105.141 202.002 91.2186 196.182 76.6972 196.166Z" fill="#FFA412"/>
<path d="M84.7165 268.394C84.8716 267.259 84.8251 266.104 84.5793 264.985C84.3208 263.947 83.832 262.981 83.1497 262.161C82.3231 261.179 81.36 260.323 80.2904 259.619C78.8752 258.678 77.3939 257.842 75.8584 257.118C73.056 255.749 70.3247 254.236 67.6751 252.587C65.4179 251.203 63.3592 249.515 61.5562 247.569C59.9409 245.807 58.7098 243.723 57.942 241.453C56.5231 236.548 57.0822 231.277 59.4978 226.785C60.6331 224.8 62.1709 223.078 64.0109 221.732C65.9646 220.319 68.1531 219.269 70.4733 218.631C73.1005 217.91 75.8211 217.593 78.5424 217.693L79.6807 208.02L87.4085 208.944L86.2532 218.753C88.8309 219.383 91.2881 220.436 93.5265 221.869C95.5961 223.182 97.3831 224.9 98.7814 226.922C100.18 228.944 101.161 231.228 101.667 233.639C102.243 236.371 102.351 239.182 101.986 241.951L88.0292 240.273C88.455 236.658 87.9768 233.858 86.5946 231.873C85.894 230.883 84.9859 230.061 83.9347 229.464C82.8835 228.867 81.7149 228.511 80.5117 228.419C79.2411 228.237 77.9481 228.293 76.6973 228.583C75.6819 228.825 74.7322 229.29 73.9162 229.946C73.1532 230.578 72.5405 231.374 72.1231 232.276C71.6762 233.243 71.3891 234.277 71.2732 235.338C71.138 236.366 71.1807 237.41 71.3993 238.423C71.6418 239.421 72.111 240.348 72.7699 241.132C73.6041 242.116 74.5752 242.973 75.6532 243.676C77.1342 244.661 78.672 245.557 80.2584 246.358C83.2418 247.905 85.9412 249.452 88.3566 250.999C90.6032 252.401 92.6514 254.103 94.4455 256.059C96.1549 257.901 97.425 260.112 98.1593 262.524C98.8937 264.935 99.0729 267.483 98.6833 269.975C98.4344 272.431 97.6794 274.807 96.4668 276.952C95.3248 278.925 93.78 280.631 91.9347 281.957C89.9691 283.345 87.7665 284.355 85.4373 284.938C82.7878 285.608 80.058 285.898 77.3281 285.801L76.2689 294.797L68.5901 293.879L69.6433 284.928C67.0289 284.346 64.4953 283.443 62.0998 282.238C59.7641 281.076 57.6673 279.48 55.9197 277.533C54.1393 275.512 52.8163 273.124 52.0423 270.537C51.1616 267.445 50.9428 264.201 51.4006 261.018L65.3585 262.686C65.0886 264.507 65.1781 266.363 65.6218 268.149C65.9824 269.53 66.6627 270.805 67.607 271.87C68.4919 272.842 69.5828 273.601 70.7986 274.089C72.0256 274.587 73.3126 274.917 74.626 275.073C75.9741 275.259 77.3434 275.222 78.6796 274.963C79.7767 274.747 80.8193 274.31 81.7451 273.679C82.585 273.095 83.2796 272.323 83.7744 271.423C84.2832 270.487 84.6039 269.458 84.7185 268.397" fill="#FFA412"/>
<path d="M194.253 162.145C187.706 173.625 179.474 178.056 179.474 178.056H145.221C145.221 178.056 199.246 153.388 194.253 162.145Z" fill="#4D4D4D"/>
<path d="M167.947 250.966C167.537 251.42 167.266 251.983 167.166 252.589C167.066 253.194 167.141 253.816 167.383 254.379C167.383 254.386 167.387 254.392 167.392 254.396C168.209 256.671 170.908 259.211 174.043 261.748C174.444 262.074 174.8 262.37 175.11 262.645C175.192 262.716 175.274 262.789 175.35 262.862C175.413 262.917 175.474 262.976 175.534 263.029C178.457 265.745 177.357 266.367 182.609 271.877C188.598 278.156 192.72 278.269 193.894 277.697C194.886 277.21 192.87 273.88 190.636 270.136C190.528 269.956 190.422 269.773 190.311 269.59C190.01 269.093 189.718 268.588 189.423 268.087C186.805 263.583 187.476 261.469 188.097 254.765C188.598 249.318 196.507 224.331 196.507 224.331L185.03 222.338C185.03 222.338 181.573 242.235 177.765 245.3C175.729 246.933 173.45 246.953 171.492 248.164C171.354 248.248 171.219 248.334 171.086 248.423C169.931 249.125 168.874 249.981 167.945 250.966" fill="#FFB27D"/>
<path d="M167.947 250.967C167.537 251.421 167.266 251.984 167.166 252.59C167.066 253.195 167.141 253.817 167.383 254.38C167.383 254.387 167.387 254.393 167.392 254.397C168.393 256.67 171.023 259.197 174.053 261.726C174.454 262.057 174.799 262.361 175.109 262.646C175.191 262.717 175.273 262.79 175.349 262.863C175.412 262.918 175.473 262.977 175.533 263.03C178.456 265.746 177.356 266.368 182.608 271.878C188.597 278.157 192.719 278.27 193.893 277.698C194.885 277.211 192.869 273.881 190.635 270.137C186.446 268.489 182.763 265.755 179.96 262.211C176.356 257.571 173.953 251.619 171.493 248.166C171.355 248.25 171.22 248.336 171.087 248.425C169.932 249.127 168.875 249.983 167.946 250.968" fill="#232323"/>
<path d="M260.488 243.745C261.197 247.314 266.245 246.719 271.888 245.329C277.53 243.94 276.193 245.592 284.218 244.696C292.243 243.8 294.68 240.784 294.924 239.581C295.143 238.513 291.176 238.137 286.92 237.643C286.384 237.582 285.848 237.516 285.309 237.449C280.504 236.844 276.987 233.716 272.622 231.152C268.488 228.722 262.319 218.821 262.319 218.821L251.306 219.7C251.306 219.7 257.085 228.544 259.315 232.389C260.63 234.651 260.56 237.641 260.397 239.95C260.257 241.213 260.285 242.49 260.482 243.746" fill="#FFB27D"/>
<path d="M271.888 245.329C277.53 243.94 276.193 245.592 284.218 244.696C292.243 243.8 294.68 240.785 294.925 239.582C295.144 238.515 291.177 238.139 286.921 237.645L286.881 237.727C283.441 239.952 279.467 241.196 275.382 241.329C269.934 241.462 264.169 239.89 260.403 239.951C260.263 241.214 260.291 242.491 260.488 243.747C261.197 247.316 266.246 246.719 271.888 245.329Z" fill="#232323"/>
<path d="M218.292 172.798L194.555 237.15C192.155 237.33 189.743 237.108 187.415 236.492C184.982 235.657 182.661 234.52 180.507 233.106C180.507 233.106 184.238 193.977 191.2 171.514C192.983 165.749 194.984 161.085 197.19 158.46C207.981 145.609 218.285 172.797 218.285 172.797" fill="#4D4D4D"/>
<path d="M207.822 128.47C201.078 126.278 181.844 129.094 162.523 132.909L158.477 126.185L116.743 122.897C116.743 122.897 102.971 153.669 110.51 173.278C111.619 176.16 114.362 177.375 118.119 177.436V177.441C118.119 177.441 143.022 178.053 151.088 178.053C171.842 178.053 195.013 163.677 198.01 163.074C202.915 162.086 204.878 171.972 209.784 182.353C214.691 192.733 255.901 228.322 255.901 228.322C255.901 228.322 262.234 228.386 264.851 227.397C266.322 226.935 267.647 226.093 268.694 224.953C268.694 224.953 223.031 133.411 207.825 128.467" fill="#686868"/>
<path d="M154.043 2.69451C151.62 1.24268 148.836 0.518225 146.019 0.606357C144.685 0.629402 143.352 0.540999 142.033 0.342059C126.215 -1.79855 116.705 21.3558 116.141 28.3728C115.109 41.3053 108.319 43.2774 98.7632 51.3728C79.6005 67.614 85.2209 86.4781 95.6978 93.4941C101.985 97.7007 113.065 93.4941 113.065 93.4941C113.222 93.605 143.371 76.5124 158.232 68.2667C180.511 65.075 162.993 8.06118 154.043 2.69653" fill="#091823"/>
<path d="M145.776 61.2508C145.841 61.2931 138.467 63.8312 133.531 61.6301C128.89 59.5641 125.375 51.8702 125.443 51.8662C127.554 51.7653 129.872 49.9081 131.657 37.705L132.558 38.0298L147.675 43.5095C147.675 43.5095 146.58 48.397 145.873 53.0484C145.272 56.9554 144.956 60.6969 145.782 61.2498" fill="#FFB27D"/>
<path d="M147.67 43.5095C147.67 43.5095 146.575 48.397 145.868 53.0485C137.186 51.4738 133.78 42.759 132.553 38.0289L147.67 43.5095Z" fill="#ED975D"/>
<path d="M149.922 48.3607C149.922 48.3607 129.242 45.5643 131.168 32.6137C133.095 19.6631 131.724 10.5811 145.009 11.8199C158.294 13.0587 160.118 18.386 160.519 22.866C160.919 27.3459 155.351 48.7541 149.922 48.3607Z" fill="#FFB27D"/>
<path d="M151.77 12.4212C151.77 12.4212 146.527 27.2682 137.521 28.1902C128.516 29.1123 125.107 26.205 125.107 26.205C128.701 22.9644 131.595 19.0136 133.609 14.5981C134.068 13.5594 134.793 12.6632 135.711 12.002C136.629 11.3408 137.705 10.9387 138.829 10.8374C145.259 10.2785 149.457 6.67623 151.77 12.4212Z" fill="#091823"/>
<path d="M151.77 12.4212C151.77 12.4212 155.919 19.0538 157.313 22.2536C158.659 25.3425 159.062 32.7277 157.991 35.6622C157.991 35.6622 164.891 22.1447 160.985 15.5746C156.842 8.61404 151.77 12.4212 151.77 12.4212Z" fill="#091823"/>
<path d="M163.189 91.9436C162.565 134.123 163.017 125.31 158.439 129.312C157.338 130.275 154.234 130.85 150.151 131.121C137.316 131.98 114.751 129.849 113.893 127.458C110.933 119.186 113.022 116.618 110.552 103.954C110.295 102.607 109.976 101.15 109.602 99.5628C107.543 90.8662 105.539 87.9075 112.845 73.94C119.472 61.284 126.355 51.0127 126.975 51.3829C144.458 61.8398 145.868 53.0504 145.868 53.0504C145.868 53.0504 163.497 71.3707 163.187 91.9446" fill="#32BA7C"/>
<path d="M207.994 200.708L194.555 237.151C192.156 237.331 189.743 237.109 187.416 236.495C184.983 235.659 182.662 234.521 180.508 233.108C180.508 233.108 184.24 193.979 191.201 171.517L207.994 200.708Z" fill="#686868"/>
<path d="M145.867 53.0494C145.867 53.0494 163.856 56.1221 165.968 63.927C168.08 71.7318 180.512 117.611 180.512 117.611C180.512 117.611 171.366 119.266 167.142 115.009C162.919 110.752 152.437 75.5147 152.437 75.5147L145.867 53.0494Z" fill="#32BA7C"/>
<path d="M150.151 131.124C137.315 131.983 114.75 129.852 113.892 127.461C110.932 119.19 113.021 116.621 110.552 103.957L116.743 86.3903C116.743 86.3903 115.719 105.951 121.448 111.097C127.178 116.243 144.889 121.03 147.672 125.328C148.879 127.07 149.724 129.041 150.155 131.121" fill="#2D9D6A"/>
<path d="M135.444 122.897C135.444 122.897 148.108 120.056 150.151 121.188C152.194 122.32 157.188 126.444 157.814 127.879C158.439 129.315 153.264 126.79 151.581 126.335C150.491 126.04 147.622 127.041 146.202 127.521C140.226 129.528 136.563 128.495 136.563 128.495L135.444 122.897Z" fill="#FFB27D"/>
<path d="M126.963 51.3759C126.963 51.3759 109.959 52.4311 104.073 60.704C95.7873 72.3493 79.3446 121.977 88.7693 128.594C99.3814 136.048 137.053 130.544 137.053 130.544C137.053 130.544 138.307 124.639 136.563 121.783C134.819 118.927 106.471 114.313 105.163 112.995C103.854 111.676 121.517 87.2882 121.517 83.3368C121.517 79.3854 126.963 51.3779 126.963 51.3779" fill="#32BA7C"/>
<path d="M150.763 124.74C150.763 124.74 153.417 128.188 154.286 128.6C154.724 128.839 155.221 128.947 155.718 128.909L153.93 125.667L150.763 124.74Z" fill="#FFB27D"/>
<path d="M150.151 121.188L157.865 124.963C157.714 125.151 157.516 125.296 157.292 125.383C157.068 125.47 156.825 125.497 156.588 125.46C155.446 125.258 154.326 124.948 153.242 124.534L150.151 121.188Z" fill="#FFB27D"/>
<path d="M154.287 133.883H215.31L233.667 87.8833H172.738L154.287 133.883Z" fill="#5E5E5E"/>
<path d="M216.026 132.091H135.444V133.883H215.307L216.026 132.091Z" fill="#464646"/>
<path d="M199.906 110.884C200.039 110.552 200.087 110.191 200.045 109.836C200.003 109.48 199.873 109.14 199.666 108.849C199.46 108.557 199.183 108.323 198.863 108.167C198.543 108.012 198.189 107.94 197.833 107.959C196.989 108.007 196.179 108.312 195.512 108.834C194.844 109.357 194.35 110.072 194.095 110.884C193.962 111.217 193.914 111.577 193.956 111.933C193.998 112.289 194.128 112.628 194.335 112.92C194.541 113.212 194.818 113.446 195.138 113.602C195.458 113.757 195.812 113.829 196.168 113.81C197.012 113.762 197.822 113.457 198.489 112.934C199.157 112.412 199.651 111.697 199.906 110.884Z" fill="white"/>
</svg>
