<svg width="582" height="656" viewBox="0 0 582 656" fill="none" xmlns="http://www.w3.org/2000/svg">
<ellipse cx="265.665" cy="630.953" rx="265.665" ry="24.7891" fill="#F5F5F5"/>
<path d="M559.393 625.804C559.393 629.682 530.959 632.804 495.875 632.804C460.792 632.804 432.358 629.654 432.358 625.804C432.352 625.734 432.352 625.664 432.358 625.594V606.61H559.323V625.552C559.359 625.632 559.382 625.717 559.393 625.804Z" fill="#F49B51"/>
<path d="M495.876 613.82C530.955 613.82 559.393 610.673 559.393 606.792C559.393 602.91 530.955 599.764 495.876 599.764C460.796 599.764 432.358 602.91 432.358 606.792C432.358 610.673 460.796 613.82 495.876 613.82Z" fill="#FCC659"/>
<path d="M574.415 602.9C574.415 606.778 545.967 609.9 510.884 609.9C475.8 609.9 447.366 606.75 447.366 602.9C447.36 602.83 447.36 602.76 447.366 602.69V583.706H574.331V602.648C574.373 602.727 574.401 602.812 574.415 602.9Z" fill="#F49B51"/>
<path d="M510.884 590.902C545.963 590.902 574.401 587.756 574.401 583.874C574.401 579.993 545.963 576.846 510.884 576.846C475.804 576.846 447.366 579.993 447.366 583.874C447.366 587.756 475.804 590.902 510.884 590.902Z" fill="#FCC659"/>
<path d="M559.393 579.996C559.393 583.874 530.959 586.996 495.876 586.996C460.792 586.996 432.358 583.846 432.358 579.996C432.351 579.926 432.351 579.856 432.358 579.786V560.774H559.323V579.716C559.363 579.805 559.387 579.899 559.393 579.996Z" fill="#F49B51"/>
<path d="M495.876 567.998C530.955 567.998 559.393 564.852 559.393 560.97C559.393 557.089 530.955 553.942 495.876 553.942C460.796 553.942 432.358 557.089 432.358 560.97C432.358 564.852 460.796 567.998 495.876 567.998Z" fill="#FCC659"/>
<path d="M581.919 557.093C581.919 560.957 553.471 564.092 518.387 564.092C483.304 564.092 454.87 560.943 454.87 557.093C454.862 557.023 454.862 556.952 454.87 556.883V537.885H581.863V556.827C581.895 556.912 581.914 557.002 581.919 557.093Z" fill="#F49B51"/>
<path d="M518.388 545.094C553.467 545.094 581.905 541.948 581.905 538.067C581.905 534.185 553.467 531.039 518.388 531.039C483.308 531.039 454.87 534.185 454.87 538.067C454.87 541.948 483.308 545.094 518.388 545.094Z" fill="#FCC659"/>
<path d="M570.131 538.067C570.131 540.671 546.961 542.785 518.331 542.785C489.702 542.785 466.532 540.671 466.532 538.067C466.532 535.463 489.688 533.335 518.331 533.335C546.975 533.335 570.131 535.463 570.131 538.067Z" fill="#F49B51"/>
<path d="M353.581 504.243C340.892 503.898 328.386 507.325 317.645 514.089C306.905 520.854 298.412 530.652 293.241 542.245C288.071 553.837 286.455 566.703 288.598 579.214C290.741 591.725 296.547 603.32 305.282 612.53C314.016 621.741 325.286 628.153 337.666 630.957C350.046 633.761 362.979 632.83 374.829 628.281C386.68 623.733 396.915 615.772 404.24 605.405C411.564 595.038 415.649 582.731 415.978 570.042C416.415 553.046 410.089 536.572 398.391 524.235C386.692 511.899 370.576 504.708 353.581 504.243ZM403.462 569.776C403.184 579.922 399.922 589.761 394.084 598.063C388.245 606.365 380.089 612.762 370.636 616.455C361.182 620.148 350.849 620.972 340.929 618.826C331.009 616.679 321.942 611.656 314.861 604.385C307.78 597.114 302.999 587.917 301.115 577.944C299.232 567.97 300.33 557.663 304.271 548.31C308.213 538.958 314.824 530.974 323.278 525.357C331.731 519.741 341.653 516.74 351.803 516.731H353.203C366.641 517.113 379.403 522.715 388.78 532.349C398.158 541.982 403.414 554.89 403.434 568.334C403.476 568.838 403.476 569.314 403.462 569.776Z" fill="#FCC659"/>
<path d="M403.49 568.362C403.49 568.838 403.49 569.314 403.49 569.762C403.212 579.907 399.951 589.746 394.113 598.047C388.275 606.349 380.12 612.746 370.667 616.44C361.214 620.133 350.882 620.958 340.962 618.813C331.043 616.667 321.976 611.646 314.894 604.376C307.812 597.106 303.03 587.91 301.145 577.938C299.26 567.966 300.356 557.659 304.295 548.306C308.235 538.953 314.844 530.968 323.296 525.35C331.747 519.732 341.668 516.729 351.817 516.717H353.217C366.67 517.089 379.448 522.692 388.836 532.335C398.224 541.979 403.481 554.904 403.49 568.362Z" fill="#F49B51"/>
<path d="M348.625 607.87V598.154C343.426 598.142 338.333 596.688 333.911 593.954L336.221 587.5C340.337 590.201 345.144 591.659 350.067 591.7C356.899 591.7 361.519 587.752 361.519 582.264C361.519 576.776 357.767 573.71 350.655 570.826C340.855 566.976 334.779 562.538 334.779 554.18C334.779 546.187 340.379 540.181 349.297 538.683V528.967H355.261V538.305C359.652 538.329 363.963 539.486 367.777 541.665L365.369 548.021C361.707 545.833 357.511 544.699 353.245 544.745C345.839 544.745 343.053 549.169 343.053 553.019C343.053 558.031 346.609 560.522 354.981 563.994C364.893 568.026 369.891 573.038 369.891 581.592C369.891 589.194 364.599 596.32 354.687 597.944V607.954L348.625 607.87Z" fill="#FCC659"/>
<path d="M142.603 0.0236731C129.914 -0.321047 117.408 3.10563 106.667 9.87015C95.9267 16.6347 87.4338 26.433 82.2632 38.0256C77.0926 49.6181 75.4767 62.4838 77.62 74.9949C79.7633 87.5061 85.5693 99.1003 94.3036 108.311C103.038 117.521 114.308 123.934 126.688 126.738C139.068 129.542 152.001 128.611 163.851 124.062C175.702 119.514 185.937 111.552 193.262 101.185C200.586 90.8186 204.671 78.5122 205 65.8231C205.44 48.8261 199.116 32.3493 187.417 20.0119C175.717 7.67454 159.599 0.485423 142.603 0.0236731ZM192.484 65.5571C192.206 75.7028 188.944 85.5415 183.106 93.8437C177.267 102.146 169.111 108.543 159.658 112.236C150.204 115.929 139.871 116.753 129.951 114.606C120.031 112.46 110.964 107.437 103.883 100.166C96.8018 92.8944 92.0207 83.6975 90.1373 73.7243C88.2538 63.751 89.3516 53.4439 93.2933 44.0911C97.235 34.7383 103.846 26.7546 112.3 21.138C120.753 15.5213 130.675 12.5209 140.825 12.5116H142.225C155.666 12.8939 168.429 18.4978 177.807 28.1345C187.185 37.7712 192.44 50.6824 192.456 64.1291C192.498 64.6191 192.498 65.0951 192.484 65.5571Z" fill="#FCC659"/>
<path d="M192.499 64.1572C192.499 64.6192 192.499 65.0952 192.499 65.5572C192.221 75.7029 188.959 85.5417 183.12 93.8438C177.282 102.146 169.126 108.543 159.672 112.236C150.218 115.929 139.885 116.753 129.966 114.607C120.046 112.46 110.979 107.437 103.897 100.166C96.8163 92.8946 92.0351 83.6977 90.1517 73.7244C88.2682 63.7512 89.366 53.4441 93.3077 44.0912C97.2495 34.7384 103.86 26.7548 112.314 21.1381C120.768 15.5215 130.69 12.521 140.839 12.5117H142.239C155.69 12.887 168.465 18.4917 177.849 28.1352C187.234 37.7786 192.489 50.701 192.499 64.1572Z" fill="#F49B51"/>
<path d="M137.591 103.65V93.9346C132.39 93.9353 127.293 92.4804 122.877 89.7346L125.187 83.2947C129.305 85.9916 134.111 87.4493 139.033 87.4946C145.865 87.4946 150.485 83.5467 150.485 78.0727C150.485 72.5988 146.733 69.3788 139.607 66.5788C129.807 62.7289 123.745 58.3049 123.745 49.933C123.745 41.9391 129.345 35.9331 138.263 34.4351V24.7192H144.227V34.0571C148.616 34.0978 152.923 35.254 156.743 37.4171L154.335 43.7731C150.669 41.5918 146.476 40.4586 142.211 40.4971C134.805 40.4971 132.019 44.935 132.019 48.771C132.019 53.783 135.575 56.2749 143.947 59.7469C153.845 63.7789 158.857 68.7908 158.857 77.3447C158.857 84.9467 153.565 92.0726 143.653 93.7106V103.706L137.591 103.65Z" fill="#FCC659"/>
<path d="M131.949 202.378L137.633 178.018L160.845 168.358L165.045 202.378C165.045 202.378 161.601 224.484 140.251 232.394C118.901 240.304 131.949 202.378 131.949 202.378Z" fill="#FCB47E"/>
<path d="M122.821 138.329C122.821 138.329 114.561 184.122 127.987 184.458C141.413 184.794 152.431 179.642 155.189 176.548C157.947 173.454 160.005 158.348 160.005 158.348C160.005 158.348 161.726 138.749 153.467 134.941C145.207 131.133 127.301 124.553 122.821 138.329Z" fill="#FCB47E"/>
<path d="M167.005 167.462L161.755 177.178C157.835 176.562 153.495 171.648 152.725 167.378C152.725 167.378 140.377 166.216 139.943 150.942C139.943 150.942 118.509 151.082 118.005 132.476C117.501 113.871 138.921 118.687 146.005 124.357C153.089 130.027 157.415 132.924 168.405 136.494C180.095 140.232 170.393 161.204 167.005 167.462Z" fill="#263238"/>
<path d="M156.981 609.774L154.335 582.712H125.733L131.949 608.99C131.949 608.99 135.253 617.81 144.871 617.488C147.416 617.495 149.91 616.772 152.056 615.405C154.203 614.038 155.912 612.083 156.981 609.774Z" fill="#FCB47E"/>
<path d="M297.819 525.117L275.825 509.101L256.813 530.465L284.953 544.731C284.953 544.731 288.453 545.431 295.509 539.285C302.565 533.139 297.819 525.117 297.819 525.117Z" fill="#FCB47E"/>
<path d="M181.046 591.154C164.498 597.412 143.331 595.704 120.539 591.154C119.881 589.558 119.139 587.962 118.579 586.366C75.1793 476.537 105.895 317.023 105.895 317.023H174.242L172.688 369.746C169.743 383.609 167.616 397.633 166.318 411.746C157.639 503.753 181.046 591.154 181.046 591.154Z" fill="#686868"/>
<path d="M181.033 591.098C179.969 588.956 141.049 509.899 152.641 420.664L164.975 430.59C160.803 514.127 180.487 588.998 181.033 591.098Z" fill="#303030"/>
<path d="M291.477 496.515C285.205 514.127 278.528 527.791 271.262 535.715C268.479 539.052 264.839 541.569 260.734 542.995C250.729 537.882 241.097 532.071 231.908 525.607C230.704 524.781 229.528 523.941 228.366 523.087C226.798 521.953 225.272 520.791 223.788 519.629C223.088 519.111 222.388 518.579 221.758 518.047C220.358 516.997 219.084 515.919 217.796 514.841C216.508 513.763 215.5 512.909 214.394 511.957C208.662 507.007 203.203 501.75 198.042 496.207L196.642 494.667L195.606 493.519C126.685 416.912 139.341 316.967 139.341 316.967H199.246C204.426 412.852 291.477 496.515 291.477 496.515Z" fill="#686868"/>
<path d="M212.686 109.531C207.577 105.807 204.007 103.735 203.139 103.119C202.061 102.349 201.739 100.403 200.521 98.4569C197.595 93.9629 191.505 86.025 185.219 83.827C184.407 83.533 183.819 84.387 184.659 85.311C186.185 87.019 189.097 89.511 188.649 89.861C187.683 90.673 180.879 82.469 178.947 84.373C177.547 85.773 187.347 93.1229 186.983 93.5849C186.213 94.5089 178.793 86.123 176.987 87.985C175.181 89.847 184.183 94.4669 183.791 95.2649C183.399 96.0629 177.211 90.953 175.993 92.1289C174.159 93.8789 185.289 100.795 184.995 101.817C184.589 103.469 178.835 100.011 177.995 101.971C177.155 103.931 185.219 107.263 186.745 108.033C190.273 109.797 192.835 109.027 195.649 113.423C197.203 115.831 198.729 118.225 200.241 120.647L212.686 109.531Z" fill="#FCB47E"/>
<path d="M71.4976 115.005C76.1875 110.805 79.5055 108.313 80.3035 107.613C81.1015 106.913 81.3535 104.813 82.4035 102.685C84.8395 97.9108 90.0474 89.3709 96.0673 86.5009C96.8373 86.1369 97.5513 86.9209 96.7813 87.9009C95.3813 89.7489 92.8054 92.4788 93.2954 92.8428C94.3314 93.5428 100.295 84.6669 102.353 86.3609C103.935 87.6349 94.9054 95.9508 95.3534 96.3708C96.2214 97.2108 102.717 88.0829 104.705 89.7769C106.693 91.4709 98.2513 97.0008 98.7133 97.7428C99.1753 98.4848 104.803 92.7588 106.133 93.7808C108.163 95.3488 97.8173 103.399 98.2233 104.379C98.7973 105.989 104.159 101.929 105.223 103.791C106.287 105.653 98.6153 109.825 97.1734 110.791C93.8694 112.919 91.2374 112.429 88.8994 117.105C87.6114 119.667 86.3515 122.215 85.1055 124.791L71.4976 115.005Z" fill="#FCB47E"/>
<path d="M199.862 324.834C191.526 330.142 182.748 334.723 173.627 338.526C162.479 343.28 150.681 346.334 138.627 347.584C126.113 348.929 113.469 346.848 102.045 341.564C102.801 335.964 103.445 331.204 104.117 327.41C114.727 332.837 126.446 335.74 138.361 335.894C150.328 336.078 162.261 334.575 173.809 331.428C182.626 329.114 191.255 326.137 199.624 322.524C199.694 323.294 199.764 324.078 199.862 324.834Z" fill="#303030"/>
<path d="M90.8172 317.583V242.165C90.8172 242.165 23.0439 230.657 36.3437 165.04C44.7437 123.348 74.5774 108.453 74.5774 108.453L91.0272 121.724C91.0272 121.724 56.0276 175.358 102.227 193.978C102.227 193.978 128.211 193.166 134.973 200.474C134.973 200.474 149.855 212.374 165.548 192.62C165.548 192.62 181.522 186.39 195.13 190.044C206.33 193.068 220.764 165.278 193.968 118.183L210.768 103.035C210.768 103.035 309.019 197.492 212.658 244.321L207.226 319.669C207.226 319.669 132.649 361.976 90.8172 317.583Z" fill="#BCBCBC"/>
<path d="M149.743 170.108C152.697 170.108 155.091 167.714 155.091 164.76C155.091 161.806 152.697 159.412 149.743 159.412C146.789 159.412 144.395 161.806 144.395 164.76C144.395 167.714 146.789 170.108 149.743 170.108Z" fill="#FCB47E"/>
<path d="M164.331 449.279C151.488 423.984 143.195 396.627 139.831 368.458L141.021 368.304C144.351 396.353 152.601 423.594 165.395 448.775L164.331 449.279Z" fill="#303030"/>
<path d="M196.544 362.942C177.574 362.942 171.512 346.464 171.442 346.296L172.576 345.904C174.584 350.781 178.048 354.92 182.495 357.754C186.943 360.588 192.158 361.979 197.426 361.738V362.928L196.544 362.942Z" fill="#303030"/>
<path d="M90.8174 242.165C90.8174 242.165 23.03 230.657 36.3439 165.04C37.0354 161.597 37.914 158.195 38.9759 154.848L39.4799 154.316C38.3599 169.128 37.8279 182.106 44.3938 196.134C58.1137 225.477 91.7554 242.095 90.8174 242.165Z" fill="#959595"/>
<path d="M212.602 244.378L207.226 319.683C195.725 325.823 183.534 330.575 170.911 333.837C174.509 331.107 189.67 307.923 192.204 296.205C196.768 275.205 197.328 263.109 197.916 240.71C220.316 234.886 245.894 215.132 254.686 182.162C256.688 204.646 247.14 227.578 212.602 244.378Z" fill="#959595"/>
<path d="M140.951 329.945H140.601V328.755C140.909 328.755 172.422 329.189 199.68 312.571L200.31 313.579C174.312 329.455 144.479 329.945 140.951 329.945Z" fill="#303030"/>
<path d="M271.262 535.784C268.479 539.122 264.839 541.639 260.734 543.064C250.729 537.951 241.097 532.141 231.908 525.677C230.704 524.851 229.528 524.011 228.366 523.157C226.798 522.023 225.272 520.861 223.788 519.699C223.088 519.181 222.388 518.649 221.758 518.117C220.358 517.067 219.084 515.989 217.796 514.911C216.508 513.833 215.5 512.979 214.394 512.027C208.662 507.077 203.203 501.819 198.042 496.277L196.642 494.737L195.606 493.589C236.626 527.469 262.792 534.385 271.262 535.784Z" fill="#303030"/>
<path d="M282.588 494.121C253.734 475.375 235.408 441.523 235.226 441.187L236.206 440.655C236.388 440.991 254.602 474.591 283.204 493.169L282.588 494.121Z" fill="#303030"/>
<path d="M160.593 631.334H95.7173C95.1787 631.335 94.6456 631.225 94.1515 631.011C93.6573 630.796 93.2129 630.482 92.8461 630.088C92.4792 629.693 92.1979 629.227 92.0199 628.719C91.8418 628.211 91.7708 627.671 91.8114 627.134V627.05C91.8114 626.56 91.9094 626.042 91.9934 625.538C92.1231 623.928 92.6368 622.372 93.4914 621.002C96.5713 616.928 102.535 615.066 113.175 610.838C118.374 608.73 123.35 606.108 128.029 603.012C128.422 602.756 128.891 602.642 129.357 602.691C129.824 602.739 130.259 602.946 130.591 603.278C143.429 615.878 151.311 613.162 153.663 607.982C155.469 604.034 158.017 604.86 158.717 606.008C160.887 609.634 162.063 620.218 162.553 625.538C162.553 626.112 162.651 626.63 162.679 627.05C162.763 628.044 162.805 628.646 162.805 628.646C162.866 628.972 162.855 629.308 162.773 629.629C162.69 629.951 162.538 630.251 162.327 630.507C162.116 630.763 161.852 630.97 161.552 631.113C161.252 631.256 160.925 631.331 160.593 631.334Z" fill="#7E7E7E"/>
<path d="M317.168 529.023L285.472 585.638C285.216 586.118 284.862 586.539 284.433 586.873C284.004 587.208 283.51 587.449 282.983 587.581C282.455 587.713 281.905 587.733 281.37 587.639C280.834 587.546 280.324 587.341 279.872 587.038C279.452 586.744 279.046 586.45 278.626 586.128C277.295 585.22 276.197 584.011 275.42 582.6C273.362 577.924 274.65 571.806 276.162 560.452C276.85 554.88 276.991 549.253 276.582 543.653C276.557 543.187 276.689 542.726 276.959 542.345C277.228 541.963 277.618 541.684 278.066 541.553C295.286 536.485 296.798 528.323 293.466 523.731C290.904 520.231 292.864 518.397 294.222 518.355C298.422 518.229 308.222 522.359 313.122 524.543L314.522 525.159L315.922 525.845C316.229 525.95 316.509 526.121 316.744 526.346C316.978 526.57 317.161 526.843 317.279 527.146C317.398 527.448 317.449 527.772 317.43 528.096C317.411 528.421 317.321 528.737 317.168 529.023Z" fill="#7E7E7E"/>
<path d="M137.101 151.797C131.879 151.797 123.661 149.571 119.363 144.209C116.703 140.891 114.533 135.025 119.363 126.009L120.357 126.527C116.745 133.373 116.717 139.127 120.357 143.551C125.341 149.767 135.855 151.545 139.957 150.425L140.251 151.517C139.218 151.747 138.158 151.841 137.101 151.797Z" fill="#374263"/>
<path d="M132.271 152.889C127.757 152.801 123.371 151.373 119.671 148.787L120.301 147.849C132.593 155.969 142.029 148.969 142.127 148.899L142.813 149.795C139.684 151.851 136.014 152.928 132.271 152.889Z" fill="#374263"/>
</svg>
