<svg width="525" height="584" viewBox="0 0 525 584" fill="none" xmlns="http://www.w3.org/2000/svg">
<path d="M474.522 126.889C597.156 222.689 473.966 442.269 343.09 492.455C212.215 542.636 -12.9103 465.426 0.579744 308.623C8.90138 211.861 93.0752 228.823 223.95 178.637C354.826 128.451 426.873 89.6584 474.527 126.884L474.522 126.889Z" fill="#F5F5F5"/>
<g clip-path="url(#clip0_615_84)">
<path d="M258.41 127.301C256.28 123.199 304.916 108.418 305.687 148.922C305.687 148.922 396.797 146.686 353.292 95.9915C338.23 78.4423 339.781 63.9302 340.232 50.4245C340.689 36.9142 330.854 -2.34617 297.129 1.61083C297.129 1.61083 288.298 -1.97733 277.277 3.73277C252.211 16.7148 196.062 142.237 258.41 127.301Z" fill="#263238"/>
<path d="M407.366 172.582C407.366 172.582 413.296 163.571 418.077 163.393C422.858 163.215 431.707 160.743 431 162.51C430.293 164.276 424.805 164.454 424.272 165.515C423.742 166.576 432.414 168.165 434.891 168.343C437.368 168.52 443.212 168.343 443.034 169.581C442.856 170.82 432.505 175.943 425.202 175.237C417.899 174.531 408.872 177.359 408.872 177.359L407.366 172.587V172.582Z" fill="#FFB27D"/>
<path d="M410.021 182.918C410.021 182.918 397.559 199.807 380.991 207.147C380.991 207.147 380.986 207.147 380.968 207.152C375.115 209.747 368.738 211.15 362.224 210.189C357.494 209.492 353.087 207.812 349.064 205.535C341.496 201.278 335.265 194.944 330.667 189.188C329.276 187.453 328.039 185.769 326.954 184.216C323.469 179.207 321.594 175.496 321.594 175.496L325.809 103.532C325.809 103.532 340.889 107.025 345.319 113.737C349.748 120.458 368.332 173.907 371.516 175.496C374.705 177.085 408.165 169.576 408.165 169.576C408.165 169.576 412.945 174.968 410.021 182.923V182.918Z" fill="#FF8F0C"/>
<path d="M196.769 536.021C196.769 536.021 186.56 545.319 188.553 551.931C190.547 558.538 199.757 562.946 201.002 571.019C202.248 579.097 207.229 583.5 211.708 583.5H233.075C233.075 583.5 236.373 577.817 228.404 576.101C220.435 574.389 217.433 564.895 217.93 556.084C218.428 547.272 217.182 535.524 217.182 535.524L200.25 531.608L196.764 536.016L196.769 536.021Z" fill="#7E7E7E"/>
<path d="M283.18 539.968C283.18 539.968 279.508 579.37 283.987 581.569L341.35 581.451C341.35 581.451 341.35 574.844 332.135 573.373C322.921 571.907 306.736 566.52 303.999 554.526C301.262 542.532 283.18 539.964 283.18 539.964V539.968Z" fill="#7E7E7E"/>
<path d="M349.064 205.54C341.496 201.283 335.265 194.949 330.667 189.193C329.275 187.458 328.039 185.774 326.954 184.221C330.115 169.304 334.754 148.795 333.75 161.781C332.45 178.638 345.633 200.24 349.064 205.545V205.54Z" fill="#686868"/>
<path d="M242.303 257.3C254.109 230.876 261.33 223.29 259.952 215.089C258.926 208.983 263.077 101.274 263.077 101.274C264.477 100.841 267.283 100.454 268.82 100.113C273.66 99.0379 277.67 95.6456 279.339 90.9828C281.346 85.3683 282.947 77.0718 282.906 66.6807L284.416 66.9766L309.838 72.0037C309.838 72.0037 309.259 79.9906 309.241 87.513C309.241 87.5767 309.241 87.6359 309.241 87.6997C309.209 94.234 313.506 100.003 319.792 101.816C323.003 102.74 325.799 103.532 325.799 103.532C325.799 103.532 335.137 130.138 336.916 157.469C338.7 184.803 319.938 196.674 337.058 251.294C354.533 307.079 235.775 271.898 242.299 257.3H242.303Z" fill="#FFB27D"/>
<path d="M309.843 72.0036C309.843 72.0036 309.264 79.9905 309.246 87.5129C295.018 87.1122 287.5 74.1575 284.417 66.9766L309.839 72.0036H309.843Z" fill="#E8945B"/>
<path d="M314.591 79.1301C314.591 79.1301 280.931 79.6856 280.908 58.7531C280.886 37.8206 276.525 23.8004 298.014 22.5573C319.504 21.3187 323.687 29.301 325.398 36.2861C327.109 43.2712 323.345 78.4425 314.591 79.1301Z" fill="#FFB27D"/>
<path d="M313.346 22.0472C313.346 22.0472 304.132 46.6043 289.986 50.2334C275.84 53.8626 269.705 50.0832 269.705 50.0832C269.705 50.0832 280.553 41.4816 282.806 26.4641C282.806 26.4641 306.394 10.3629 313.346 22.0517V22.0472Z" fill="#263238"/>
<path d="M311.065 24.0416C311.065 24.0416 317.899 26.5916 320.713 31.5686C323.464 36.4363 325.809 42.8795 325.266 50.7844C325.266 50.7844 332.209 34.0958 324.408 24.6518C316.133 14.6386 311.07 24.0416 311.07 24.0416H311.065Z" fill="#263238"/>
<path d="M239.055 148.922C239.055 148.922 238.202 160.952 239.055 175.387C239.626 184.954 249.319 197.772 250.697 200.941C254.15 208.892 258.041 210.185 258.041 210.185L288.157 217.552L298.744 220.139L332.14 210.18C332.14 210.18 347.349 167.801 341.245 143.945C335.137 120.089 325.809 103.523 325.809 103.523C325.809 103.523 298.557 130.157 263.077 101.265L239.055 148.913V148.922Z" fill="#FF8F0C"/>
<path d="M247.869 179.294C248.439 188.86 249.319 197.776 250.692 200.946C254.145 208.896 258.036 210.189 258.036 210.189L288.152 217.557L301.231 213.718C301.231 213.718 257.567 207.111 262.402 169.613L247.859 179.294H247.869Z" fill="#BCBCBC"/>
<path d="M330.019 216.624C330.019 216.624 346.555 268.01 347.618 285.505C348.68 302.999 316.005 534.031 314.692 542.09C313.451 549.69 303.999 554.531 303.999 554.531C303.999 554.531 299.652 557.09 293.448 555.341C284.84 552.914 282.117 550.009 282.117 550.009C282.117 550.009 269.244 385.24 277.209 326.381C285.173 267.523 285.269 216.624 285.269 216.624H330.014H330.019Z" fill="#303030"/>
<path d="M259.952 215.089C259.952 215.089 234.726 248.876 232.372 271.716C230.019 294.557 228.682 374.785 223.673 397.052C218.665 419.318 200.254 462.167 200.254 531.613C200.254 531.613 202.165 535.592 208.077 537.714C209.966 538.393 212.497 539.048 214.956 539.613C219.828 540.729 224.827 538.352 227.054 533.88C239.498 508.868 279.143 428.193 281.177 411.445C282.614 399.593 295.131 321.158 322.437 275.136C328.992 264.085 318.414 220.148 318.414 220.148L259.957 215.093L259.952 215.089Z" fill="#686868"/>
<path d="M332.66 208.691C332.66 208.691 326.023 213.933 312.831 214.197C297.075 214.515 258.041 210.19 258.041 210.19C258.041 210.19 256.308 215.025 256.376 220.134C256.376 220.134 304.054 232.137 331.675 221.887C331.675 221.887 335.238 215.194 332.656 208.691H332.66Z" fill="#303030"/>
<path d="M309.423 219.629C309.423 215.153 312.649 211.505 316.613 211.505C320.577 211.505 323.803 215.148 323.803 219.629C323.803 224.109 320.577 227.748 316.613 227.748C312.649 227.748 309.423 224.105 309.423 219.629ZM311.805 219.629C311.805 222.798 313.963 225.371 316.613 225.371C319.264 225.371 321.421 222.794 321.421 219.629C321.421 216.464 319.264 213.887 316.613 213.887C313.963 213.887 311.805 216.464 311.805 219.629Z" fill="white"/>
<path d="M206.727 217.99L255.569 260.447L313.794 193.705L264.951 151.247L206.727 217.99Z" fill="#BE6700"/>
<path d="M269.057 218.14C269.057 218.14 286.953 220.23 286.898 224.469C286.843 228.708 282.437 237.424 280.229 237.811C278.017 238.198 265.664 226.026 265.664 226.026L269.057 218.14Z" fill="#FFB27D"/>
<path d="M263.077 101.274C263.077 101.274 239.183 102.945 230.024 125.17C220.864 147.396 203.484 184.712 203.484 190.991C203.484 197.271 213.191 216.623 265.326 227.747C265.326 227.747 270.718 222.087 270.389 217.607C270.389 217.607 237.847 189.703 237.933 186.443C238.098 180.273 243.271 172.131 271.84 143.599C279.609 135.844 263.073 101.269 263.073 101.269L263.077 101.274Z" fill="#FF8F0C"/>
</g>
<defs>
<clipPath id="clip0_615_84">
<rect width="254.749" height="583" fill="white" transform="translate(188.293 0.5)"/>
</clipPath>
</defs>
</svg>
