<svg width="522" height="580" viewBox="0 0 522 580" fill="none" xmlns="http://www.w3.org/2000/svg">
<path d="M471.264 125.738C593.055 221.045 470.711 439.495 340.734 489.423C210.758 539.346 -12.8217 462.534 0.575763 306.537C8.84026 210.273 92.4361 227.149 222.413 177.221C352.389 127.293 423.942 88.6995 471.269 125.733L471.264 125.738Z" fill="#F5F5F5"/>
<g clip-path="url(#clip0_228_224)">
<path d="M256.635 126.149C254.52 122.067 302.822 107.363 303.587 147.658C303.587 147.658 394.071 145.434 350.866 95.0001C335.907 77.5412 337.447 63.1038 337.896 49.6676C338.349 36.2268 328.581 -2.83153 295.089 1.10511C295.089 1.10511 286.318 -2.4646 275.373 3.21613C250.479 16.1314 194.715 141.008 256.635 126.149Z" fill="#263238"/>
<path d="M404.568 171.196C404.568 171.196 410.458 162.231 415.206 162.055C419.953 161.878 428.742 159.418 428.04 161.176C427.338 162.934 421.888 163.11 421.358 164.166C420.832 165.221 429.444 166.802 431.904 166.979C434.364 167.156 440.168 166.979 439.991 168.211C439.814 169.443 429.535 174.54 422.282 173.837C415.029 173.135 406.063 175.948 406.063 175.948L404.568 171.201V171.196Z" fill="#FFB27D"/>
<path d="M407.205 181.479C407.205 181.479 394.828 198.281 378.374 205.584C378.374 205.584 378.369 205.584 378.351 205.589C372.539 208.171 366.206 209.566 359.736 208.61C355.038 207.917 350.662 206.245 346.666 203.98C339.151 199.745 332.962 193.443 328.396 187.717C327.014 185.991 325.786 184.315 324.708 182.77C321.247 177.787 319.385 174.095 319.385 174.095L323.571 102.502C323.571 102.502 338.548 105.977 342.947 112.654C347.346 119.34 365.802 172.514 368.965 174.095C372.131 175.676 405.361 168.206 405.361 168.206C405.361 168.206 410.109 173.57 407.205 181.484V181.479Z" fill="#FF8F0C"/>
<path d="M195.417 532.765C195.417 532.765 185.279 542.015 187.258 548.593C189.238 555.166 198.385 559.551 199.621 567.583C200.858 575.619 205.805 580 210.254 580H231.474C231.474 580 234.75 574.346 226.835 572.638C218.921 570.935 215.94 561.49 216.433 552.724C216.927 543.958 215.691 532.271 215.691 532.271L198.874 528.375L195.413 532.76L195.417 532.765Z" fill="#7E7E7E"/>
<path d="M281.235 536.692C281.235 536.692 277.588 575.891 282.037 578.079L339.006 577.961C339.006 577.961 339.006 571.388 329.854 569.925C320.703 568.466 304.63 563.107 301.912 551.175C299.193 539.242 281.235 536.688 281.235 536.688V536.692Z" fill="#7E7E7E"/>
<path d="M346.666 203.985C339.151 199.749 332.962 193.448 328.396 187.722C327.014 185.996 325.786 184.32 324.708 182.775C327.848 167.935 332.455 147.531 331.458 160.451C330.167 177.221 343.26 198.712 346.666 203.989V203.985Z" fill="#686868"/>
<path d="M240.639 255.478C252.363 229.19 259.535 221.643 258.167 213.484C257.147 207.409 261.27 100.255 261.27 100.255C262.661 99.8245 265.447 99.4395 266.973 99.0997C271.78 98.0306 275.762 94.6557 277.42 90.0169C279.414 84.4313 281.004 76.1775 280.963 65.8398L282.463 66.1343L307.71 71.1355C307.71 71.1355 307.135 79.0813 307.117 86.565C307.117 86.6284 307.117 86.6873 307.117 86.7507C307.085 93.2514 311.352 98.991 317.595 100.794C320.785 101.714 323.562 102.502 323.562 102.502C323.562 102.502 332.835 128.971 334.602 156.161C336.373 183.355 317.74 195.165 334.742 249.503C352.098 305.001 234.156 270.002 240.634 255.478H240.639Z" fill="#FFB27D"/>
<path d="M307.715 71.136C307.715 71.136 307.14 79.0817 307.121 86.5654C292.991 86.1668 285.525 73.2787 282.463 66.1348L307.71 71.136H307.715Z" fill="#E8945B"/>
<path d="M312.431 78.2255C312.431 78.2255 279.002 78.7782 278.979 57.9534C278.956 37.1286 274.625 23.1805 295.968 21.9438C317.31 20.7116 321.464 28.6529 323.163 35.602C324.862 42.5511 321.125 77.5415 312.431 78.2255Z" fill="#FFB27D"/>
<path d="M311.194 21.4364C311.194 21.4364 302.043 45.8672 287.994 49.4777C273.946 53.0881 267.853 49.3282 267.853 49.3282C267.853 49.3282 278.626 40.7708 280.864 25.8306C280.864 25.8306 304.29 9.81225 311.194 21.441V21.4364Z" fill="#263238"/>
<path d="M308.929 23.4209C308.929 23.4209 315.715 25.9578 318.51 30.9091C321.242 35.7518 323.571 42.1619 323.032 50.0261C323.032 50.0261 329.927 33.4233 322.18 24.0279C313.962 14.0663 308.933 23.4209 308.933 23.4209H308.929Z" fill="#263238"/>
<path d="M237.413 147.658C237.413 147.658 236.566 159.626 237.413 173.987C237.979 183.504 247.606 196.257 248.975 199.41C252.404 207.319 256.268 208.606 256.268 208.606L286.177 215.935L296.692 218.508L329.859 208.601C329.859 208.601 344.963 166.44 338.901 142.707C332.835 118.973 323.571 102.493 323.571 102.493C323.571 102.493 296.507 128.989 261.27 100.246L237.413 147.649V147.658Z" fill="#FF8F0C"/>
<path d="M246.166 177.874C246.732 187.392 247.606 196.262 248.97 199.415C252.4 207.324 256.264 208.611 256.264 208.611L286.173 215.94L299.161 212.122C299.161 212.122 255.797 205.548 260.599 168.243L246.157 177.874H246.166Z" fill="#BCBCBC"/>
<path d="M327.753 215.012C327.753 215.012 344.175 266.134 345.231 283.538C346.286 300.943 313.835 530.786 312.531 538.804C311.299 546.365 301.912 551.18 301.912 551.18C301.912 551.18 297.594 553.726 291.433 551.986C282.884 549.572 280.18 546.682 280.18 546.682C280.18 546.682 267.395 382.761 275.305 324.205C283.215 265.649 283.31 215.012 283.31 215.012H327.748H327.753Z" fill="#303030"/>
<path d="M258.167 213.484C258.167 213.484 233.114 247.098 230.776 269.82C228.439 292.543 227.111 372.359 222.137 394.511C217.163 416.663 198.878 459.291 198.878 528.379C198.878 528.379 200.777 532.339 206.648 534.45C208.523 535.125 211.038 535.777 213.48 536.339C218.318 537.449 223.283 535.084 225.494 530.635C237.853 505.752 277.226 425.492 279.246 408.831C280.673 397.039 293.104 319.008 320.223 273.223C326.733 262.228 316.227 218.517 316.227 218.517L258.171 213.489L258.167 213.484Z" fill="#686868"/>
<path d="M330.375 207.12C330.375 207.12 323.784 212.334 310.682 212.597C295.034 212.914 256.268 208.611 256.268 208.611C256.268 208.611 254.547 213.421 254.615 218.504C254.615 218.504 301.966 230.446 329.397 220.248C329.397 220.248 332.935 213.589 330.371 207.12H330.375Z" fill="#303030"/>
<path d="M307.298 218.002C307.298 213.549 310.501 209.92 314.438 209.92C318.374 209.92 321.577 213.544 321.577 218.002C321.577 222.459 318.374 226.079 314.438 226.079C310.501 226.079 307.298 222.455 307.298 218.002ZM309.663 218.002C309.663 221.155 311.806 223.714 314.438 223.714C317.07 223.714 319.213 221.15 319.213 218.002C319.213 214.853 317.07 212.289 314.438 212.289C311.806 212.289 309.663 214.853 309.663 218.002Z" fill="white"/>
<path d="M205.307 216.371L253.814 258.609L311.639 192.21L263.132 149.971L205.307 216.371Z" fill="#BE6700"/>
<path d="M267.209 216.52C267.209 216.52 284.982 218.599 284.927 222.816C284.873 227.034 280.497 235.704 278.304 236.089C276.107 236.474 263.839 224.366 263.839 224.366L267.209 216.52Z" fill="#FFB27D"/>
<path d="M261.27 100.256C261.27 100.256 237.54 101.918 228.443 124.029C219.346 146.141 202.086 183.265 202.086 189.512C202.086 195.759 211.726 215.012 263.503 226.079C263.503 226.079 268.858 220.448 268.532 215.99C268.532 215.99 236.213 188.23 236.299 184.986C236.462 178.848 241.599 170.748 269.973 142.363C277.688 134.648 261.265 100.251 261.265 100.251L261.27 100.256Z" fill="#FF8F0C"/>
</g>
<defs>
<clipPath id="clip0_228_224">
<rect width="253" height="580" fill="white" transform="translate(187)"/>
</clipPath>
</defs>
</svg>
